M48
; DRILL file {KiCad 8.0.5-8.0.5-0~ubuntu20.04.1} date 2024-11-10T14:11:02+0000
; FORMAT={-:-/ absolute / metric / decimal}
; #@! TF.CreationDate,2024-11-10T14:11:02+00:00
; #@! TF.GenerationSoftware,Kicad,Pcbnew,8.0.5-8.0.5-0~ubuntu20.04.1
; #@! TF.FileFunction,Plated,1,2,PTH
FMAT,2
METRIC
; #@! TA.AperFunction,Plated,PTH,ViaDrill
T1C0.300
; #@! TA.AperFunction,Plated,PTH,ViaDrill
T2C0.500
; #@! TA.AperFunction,Plated,PTH,ViaDrill
T3C0.600
; #@! TA.AperFunction,Plated,PTH,ComponentDrill
T4C0.700
; #@! TA.AperFunction,Plated,PTH,ViaDrill
T5C0.800
; #@! TA.AperFunction,Plated,PTH,ComponentDrill
T6C1.000
; #@! TA.AperFunction,Plated,PTH,ComponentDrill
T7C1.524
%
G90
G05
T1
X37.75Y-67.75
X37.75Y-68.75
X37.75Y-92.25
X37.75Y-93.25
X37.75Y-119.25
X37.75Y-120.25
X37.75Y-137.75
X37.75Y-138.75
X37.75Y-176.0
X37.75Y-177.0
X37.75Y-195.0
X37.75Y-196.0
X38.75Y-67.75
X38.75Y-93.25
X38.75Y-119.25
X38.75Y-138.75
X38.75Y-177.0
X38.75Y-196.0
X39.75Y-133.75
X41.5Y-160.0
X41.75Y-154.5
X42.25Y-135.0
X42.411Y-159.339
X42.89Y-154.787
X44.75Y-122.5
X50.75Y-136.431
X67.5Y-136.5
X68.208Y-136.431
X68.866Y-136.131
X72.2Y-89.6
X72.2Y-90.6
X72.2Y-91.6
X72.2Y-92.6
X73.2Y-89.6
X73.2Y-90.6
X73.2Y-91.6
X73.2Y-92.6
X73.25Y-50.0
X73.25Y-51.0
X74.2Y-89.6
X74.2Y-90.6
X74.2Y-91.6
X74.2Y-92.6
X74.25Y-50.0
X75.2Y-89.6
X75.2Y-90.6
X75.2Y-91.6
X75.2Y-92.6
X75.25Y-212.5
X75.6Y-109.05
X76.25Y-211.5
X76.25Y-212.5
X82.0Y-110.15
X84.6Y-97.8
X92.5Y-120.0
X93.0Y-121.75
X93.5Y-135.731
X95.6Y-174.2
X96.45Y-174.355
X97.1Y-125.7
X97.49Y-174.905
X99.4Y-136.831
X100.04Y-137.231
X100.04Y-138.35
X101.44Y-177.87
X101.84Y-140.32
X102.071Y-177.47
X102.24Y-159.37
X102.665Y-177.07
X103.215Y-175.8
X103.6Y-176.52
X106.5Y-127.5
X106.537Y-128.564
X107.419Y-138.2
X108.197Y-138.2
X111.25Y-154.5
X111.5Y-131.05
X112.0Y-153.75
X112.0Y-154.5
X112.4Y-86.0
X112.4Y-87.0
X112.4Y-88.0
X112.4Y-89.0
X112.4Y-202.0
X112.4Y-202.8
X112.4Y-203.6
X112.4Y-204.4
X112.4Y-205.2
X113.0Y-66.6
X113.0Y-67.6
X113.0Y-68.6
X113.0Y-69.6
X113.061Y-128.75
X113.2Y-202.0
X113.2Y-202.8
X113.2Y-203.6
X113.2Y-204.4
X113.2Y-205.2
X113.4Y-86.0
X113.4Y-87.0
X113.4Y-88.0
X113.4Y-89.0
X113.75Y-123.25
X113.961Y-126.108
X114.0Y-66.6
X114.0Y-67.6
X114.0Y-68.6
X114.0Y-69.6
X114.0Y-128.65
X114.0Y-141.8
X114.0Y-142.6
X114.0Y-143.4
X114.0Y-202.0
X114.0Y-202.8
X114.0Y-203.6
X114.0Y-204.4
X114.0Y-205.2
X114.034Y-108.65
X114.2Y-125.45
X114.4Y-86.0
X114.4Y-87.0
X114.4Y-88.0
X114.4Y-89.0
X114.5Y-123.25
X114.5Y-134.0
X114.5Y-134.75
X114.6Y-131.05
X114.8Y-141.8
X114.8Y-142.6
X114.8Y-143.4
X114.8Y-202.0
X114.8Y-202.8
X114.8Y-203.6
X114.8Y-204.4
X114.8Y-205.2
X114.8Y-206.2
X114.8Y-207.0
X115.0Y-66.6
X115.0Y-67.6
X115.0Y-68.6
X115.0Y-69.6
X115.0Y-135.8
X115.4Y-86.0
X115.4Y-87.0
X115.4Y-88.0
X115.4Y-89.0
X115.5Y-134.75
X115.6Y-141.8
X115.6Y-142.6
X115.6Y-143.4
X115.6Y-206.2
X115.6Y-207.0
X116.0Y-66.6
X116.0Y-67.6
X116.0Y-68.6
X116.0Y-69.6
X116.25Y-50.0
X116.25Y-51.0
X116.4Y-105.8
X116.4Y-206.2
X116.4Y-207.0
X117.175Y-150.575
X117.182Y-147.807
X117.2Y-206.2
X117.2Y-207.0
X117.239Y-130.6
X117.25Y-50.0
X117.25Y-123.0
X117.25Y-129.5
X117.38Y-131.52
X117.4Y-105.8
X117.5Y-126.55
X117.6Y-151.0
X117.625Y-128.375
X117.85Y-135.0
X117.876Y-129.187
X118.0Y-124.8
X118.0Y-125.5
X118.0Y-137.8
X118.0Y-206.2
X118.0Y-207.0
X118.05Y-150.55
X118.25Y-212.5
X118.75Y-139.25
X118.8Y-137.8
X118.8Y-206.2
X118.8Y-207.0
X119.25Y-211.5
X119.25Y-212.5
X119.6Y-83.784
X119.6Y-149.4
X119.612Y-100.989
X119.825Y-135.052
X120.0Y-105.8
X120.0Y-141.8
X120.0Y-142.6
X120.0Y-143.4
X120.164Y-100.414
X120.512Y-107.0
X120.522Y-134.989
X120.714Y-99.914
X120.8Y-85.0
X120.8Y-141.8
X120.8Y-142.6
X120.8Y-143.4
X120.8Y-150.2
X120.8Y-201.8
X120.8Y-202.6
X120.8Y-203.4
X120.8Y-204.2
X120.8Y-205.0
X120.918Y-85.69
X121.213Y-135.102
X121.297Y-99.458
X121.5Y-107.066
X121.6Y-141.8
X121.6Y-142.6
X121.6Y-143.4
X121.6Y-201.8
X121.6Y-202.6
X121.6Y-203.4
X121.6Y-204.2
X121.6Y-205.0
X122.0Y-65.25
X122.0Y-135.0
X122.037Y-99.495
X122.039Y-130.65
X122.4Y-201.8
X122.4Y-202.6
X122.4Y-203.4
X122.4Y-204.2
X122.4Y-205.0
X122.739Y-65.289
X123.177Y-103.227
X123.2Y-126.8
X123.2Y-127.6
X123.2Y-128.4
X123.3Y-129.3
X123.736Y-83.986
X123.75Y-84.75
X123.75Y-123.0
X123.75Y-123.75
X123.75Y-124.5
X124.1Y-135.1
X124.75Y-84.75
X125.0Y-135.0
X125.5Y-103.0
X126.0Y-123.0
X126.0Y-123.75
X126.0Y-124.5
X126.0Y-133.75
X126.0Y-135.0
X126.8Y-175.3
X127.25Y-197.75
X127.604Y-175.704
X127.702Y-179.11
X128.591Y-176.1
X128.6Y-198.0
X129.0Y-101.8
X129.0Y-102.8
X129.0Y-103.8
X129.0Y-104.8
X129.086Y-135.716
X129.1Y-160.2
X129.51Y-135.158
X130.0Y-101.8
X130.0Y-102.8
X130.0Y-103.8
X130.0Y-104.8
X130.124Y-134.823
X130.4Y-140.0
X130.419Y-179.431
X130.63Y-178.298
X130.791Y-134.609
X130.8Y-125.4
X131.0Y-101.8
X131.0Y-102.8
X131.0Y-103.8
X131.0Y-104.8
X131.017Y-178.881
X131.631Y-135.039
X132.0Y-101.8
X132.0Y-102.8
X132.0Y-103.8
X132.0Y-104.8
X132.263Y-134.737
X132.977Y-135.154
X134.8Y-173.2
X145.69Y-177.69
X146.24Y-177.0
X146.8Y-126.2
X146.8Y-127.0
X146.8Y-127.8
X146.8Y-128.6
X146.8Y-129.4
X146.8Y-130.2
X147.6Y-126.2
X147.6Y-127.0
X147.6Y-127.8
X147.6Y-128.6
X147.6Y-129.4
X147.6Y-130.2
X148.4Y-126.2
X148.4Y-127.0
X148.4Y-127.8
X148.4Y-128.6
X148.4Y-129.4
X148.4Y-130.2
X149.2Y-126.2
X149.2Y-127.0
X149.2Y-127.8
X149.2Y-128.6
X149.2Y-129.4
X149.2Y-130.2
X150.0Y-126.2
X150.0Y-127.0
X150.0Y-127.8
X150.0Y-128.6
X150.0Y-129.4
X150.8Y-126.2
X150.8Y-127.0
X150.8Y-127.8
X150.8Y-128.6
X150.8Y-129.4
X151.6Y-126.2
X151.6Y-127.0
X151.6Y-127.8
X151.6Y-128.6
X151.6Y-129.4
X152.4Y-126.2
X152.4Y-127.0
X152.4Y-127.8
X152.4Y-128.6
X152.4Y-129.4
X152.4Y-130.2
X153.0Y-157.281
X153.8Y-157.831
X154.2Y-101.4
X154.2Y-102.4
X154.2Y-103.4
X154.2Y-104.4
X155.2Y-101.4
X155.2Y-102.4
X155.2Y-103.4
X155.2Y-104.4
X156.2Y-101.4
X156.2Y-102.4
X156.2Y-103.4
X156.2Y-104.4
X157.2Y-66.2
X157.2Y-67.2
X157.2Y-68.2
X157.2Y-69.2
X157.2Y-101.4
X157.2Y-102.4
X157.2Y-103.4
X157.2Y-104.4
X158.2Y-66.2
X158.2Y-67.2
X158.2Y-68.2
X158.2Y-69.2
X158.8Y-197.8
X159.0Y-50.0
X159.0Y-51.0
X159.0Y-205.8
X159.2Y-66.2
X159.2Y-67.2
X159.2Y-68.2
X159.2Y-69.2
X160.0Y-50.0
X160.2Y-66.2
X160.2Y-67.2
X160.2Y-68.2
X160.2Y-69.2
X160.75Y-212.5
X161.75Y-211.5
X161.75Y-212.5
X163.4Y-109.6
X163.6Y-59.8
X164.2Y-76.768
X164.2Y-109.05
X171.4Y-135.7
X172.224Y-135.7
X172.774Y-136.138
X173.0Y-136.8
X173.2Y-167.0
X175.0Y-172.8
X176.2Y-174.531
X176.4Y-173.716
X176.75Y-169.75
X176.75Y-170.5
X176.94Y-86.6
X177.5Y-169.75
X177.5Y-170.5
X178.0Y-201.6
X178.0Y-202.6
X178.0Y-203.6
X178.0Y-204.6
X178.442Y-175.158
X179.0Y-201.6
X179.0Y-202.6
X179.0Y-203.6
X179.0Y-204.6
X179.047Y-175.763
X180.0Y-201.6
X180.0Y-202.6
X180.0Y-203.6
X180.0Y-204.6
X180.6Y-95.6
X181.0Y-201.6
X181.0Y-202.6
X181.0Y-203.6
X181.0Y-204.6
X182.0Y-174.5
X184.9Y-170.9
X197.25Y-50.0
X197.25Y-51.0
X197.4Y-66.8
X197.4Y-67.8
X197.4Y-68.8
X197.4Y-69.8
X198.25Y-50.0
X198.4Y-66.8
X198.4Y-67.8
X198.4Y-68.8
X198.4Y-69.8
X199.4Y-66.8
X199.4Y-67.8
X199.4Y-68.8
X199.4Y-69.8
X200.4Y-66.8
X200.4Y-67.8
X200.4Y-68.8
X200.4Y-69.8
X201.5Y-212.5
X202.5Y-211.5
X202.5Y-212.5
X209.206Y-172.806
X214.452Y-88.652
X230.151Y-123.351
X232.493Y-173.631
X234.049Y-122.849
X235.25Y-50.0
X235.25Y-51.0
X236.25Y-50.0
X249.25Y-212.5
X249.727Y-91.477
X250.25Y-211.5
X250.25Y-212.5
X251.237Y-173.637
X269.962Y-173.963
X272.6Y-200.2
X272.6Y-201.2
X272.6Y-202.2
X272.6Y-203.2
X273.2Y-66.6
X273.2Y-67.6
X273.2Y-68.6
X273.2Y-69.6
X273.25Y-50.0
X273.25Y-51.0
X273.6Y-200.2
X273.6Y-201.2
X273.6Y-202.2
X273.6Y-203.2
X274.2Y-66.6
X274.2Y-67.6
X274.2Y-68.6
X274.2Y-69.6
X274.25Y-50.0
X274.6Y-200.2
X274.6Y-201.2
X274.6Y-202.2
X274.6Y-203.2
X275.2Y-66.6
X275.2Y-67.6
X275.2Y-68.6
X275.2Y-69.6
X275.6Y-200.2
X275.6Y-201.2
X275.6Y-202.2
X275.6Y-203.2
X276.2Y-66.6
X276.2Y-67.6
X276.2Y-68.6
X276.2Y-69.6
X280.565Y-173.8
X286.5Y-119.5
X286.5Y-120.5
X286.5Y-121.5
X287.5Y-119.5
X287.5Y-120.5
X287.5Y-121.5
X288.5Y-119.5
X288.5Y-120.5
X288.5Y-121.5
X289.5Y-119.5
X289.5Y-120.5
X289.5Y-121.5
X290.4Y-120.4
X291.24Y-65.0
X291.6Y-122.6
X295.4Y-157.281
X296.1Y-157.281
X297.619Y-120.135
X301.5Y-212.5
X302.5Y-211.5
X302.5Y-212.5
X303.0Y-120.4
X311.2Y-66.6
X311.2Y-67.6
X311.2Y-68.6
X311.2Y-69.6
X311.5Y-50.0
X311.5Y-51.0
X312.2Y-66.6
X312.2Y-67.6
X312.2Y-68.6
X312.2Y-69.6
X312.5Y-50.0
X313.2Y-66.6
X313.2Y-67.6
X313.2Y-68.6
X313.2Y-69.6
X314.2Y-66.6
X314.2Y-67.6
X314.2Y-68.6
X314.2Y-69.6
X320.555Y-168.5
X321.482Y-172.787
X321.5Y-172.0
X322.0Y-173.75
X322.0Y-175.75
X322.25Y-167.5
X322.875Y-165.95
X323.25Y-175.95
X325.5Y-212.5
X326.5Y-174.75
X326.5Y-211.5
X326.5Y-212.5
X329.34Y-65.5
X347.8Y-202.4
X347.8Y-203.4
X347.8Y-204.4
X347.8Y-205.4
X348.75Y-172.75
X348.8Y-202.4
X348.8Y-203.4
X348.8Y-204.4
X348.8Y-205.4
X349.5Y-50.0
X349.5Y-51.0
X349.6Y-66.2
X349.6Y-67.2
X349.6Y-68.2
X349.6Y-69.2
X349.8Y-202.4
X349.8Y-203.4
X349.8Y-204.4
X349.8Y-205.4
X350.5Y-50.0
X350.6Y-66.2
X350.6Y-67.2
X350.6Y-68.2
X350.6Y-69.2
X350.8Y-202.4
X350.8Y-203.4
X350.8Y-204.4
X350.8Y-205.4
X351.6Y-66.2
X351.6Y-67.2
X351.6Y-68.2
X351.6Y-69.2
X352.6Y-66.2
X352.6Y-67.2
X352.6Y-68.2
X352.6Y-69.2
X367.44Y-87.2
X367.685Y-172.753
X375.4Y-202.2
X375.4Y-203.2
X375.4Y-204.2
X375.4Y-205.2
X376.4Y-202.2
X376.4Y-203.2
X376.4Y-204.2
X376.4Y-205.2
X377.4Y-202.2
X377.4Y-203.2
X377.4Y-204.2
X377.4Y-205.2
X377.75Y-212.5
X378.4Y-202.2
X378.4Y-203.2
X378.4Y-204.2
X378.4Y-205.2
X378.75Y-211.5
X378.75Y-212.5
X385.237Y-172.987
X385.5Y-82.25
X385.5Y-83.25
X386.5Y-82.25
X386.5Y-83.25
X386.5Y-85.5
X387.2Y-66.6
X387.2Y-67.6
X387.2Y-68.6
X387.2Y-69.6
X387.25Y-86.0
X387.75Y-50.0
X387.75Y-51.0
X388.2Y-66.6
X388.2Y-67.6
X388.2Y-68.6
X388.2Y-69.6
X388.75Y-50.0
X389.0Y-89.25
X389.2Y-66.6
X389.2Y-67.6
X389.2Y-68.6
X389.2Y-69.6
X389.75Y-89.25
X390.2Y-66.6
X390.2Y-67.6
X390.2Y-68.6
X390.2Y-69.6
X394.865Y-174.0
X398.706Y-83.8
X424.4Y-201.2
X424.4Y-202.2
X424.4Y-203.2
X424.4Y-204.2
X425.25Y-212.5
X425.4Y-201.2
X425.4Y-202.2
X425.4Y-203.2
X425.4Y-204.2
X425.75Y-50.0
X425.75Y-51.0
X425.8Y-64.8
X425.8Y-65.8
X425.8Y-66.8
X425.8Y-67.8
X426.25Y-211.5
X426.25Y-212.5
X426.4Y-201.2
X426.4Y-202.2
X426.4Y-203.2
X426.4Y-204.2
X426.75Y-50.0
X426.8Y-64.8
X426.8Y-65.8
X426.8Y-66.8
X426.8Y-67.8
X427.169Y-173.919
X427.4Y-201.2
X427.4Y-202.2
X427.4Y-203.2
X427.4Y-204.2
X427.8Y-64.8
X427.8Y-65.8
X427.8Y-66.8
X427.8Y-67.8
X428.8Y-64.8
X428.8Y-65.8
X428.8Y-66.8
X428.8Y-67.8
X441.252Y-90.453
X455.831Y-173.831
X464.0Y-50.0
X464.0Y-51.0
X464.2Y-64.8
X464.2Y-65.8
X464.2Y-66.8
X464.2Y-67.8
X465.0Y-50.0
X465.2Y-64.8
X465.2Y-65.8
X465.2Y-66.8
X465.2Y-67.8
X466.0Y-212.5
X466.2Y-64.8
X466.2Y-65.8
X466.2Y-66.8
X466.2Y-67.8
X467.0Y-211.5
X467.0Y-212.5
X467.2Y-64.8
X467.2Y-65.8
X467.2Y-66.8
X467.2Y-67.8
X472.75Y-149.0
X472.75Y-167.5
X473.25Y-168.5
X473.5Y-166.75
X474.25Y-166.0
X474.456Y-170.0
X475.0Y-165.25
X478.497Y-164.903
X478.75Y-173.0
X481.74Y-89.6
X499.637Y-172.95
X504.588Y-177.44
X504.6Y-176.34
X505.359Y-176.359
X506.75Y-50.0
X506.75Y-51.0
X507.75Y-50.0
X508.0Y-66.2
X508.0Y-67.2
X508.0Y-68.2
X508.0Y-69.2
X508.75Y-212.5
X509.0Y-66.2
X509.0Y-67.2
X509.0Y-68.2
X509.0Y-69.2
X509.75Y-211.5
X509.75Y-212.5
X510.0Y-66.2
X510.0Y-67.2
X510.0Y-68.2
X510.0Y-69.2
X511.0Y-66.2
X511.0Y-67.2
X511.0Y-68.2
X511.0Y-69.2
X519.84Y-173.25
X529.365Y-87.2
X538.89Y-173.25
X549.0Y-65.8
X549.0Y-66.8
X549.0Y-67.8
X549.0Y-68.8
X550.0Y-65.8
X550.0Y-66.8
X550.0Y-67.8
X550.0Y-68.8
X551.0Y-65.8
X551.0Y-66.8
X551.0Y-67.8
X551.0Y-68.8
X551.5Y-50.0
X551.5Y-212.5
X552.0Y-65.8
X552.0Y-66.8
X552.0Y-67.8
X552.0Y-68.8
X552.5Y-50.0
X552.5Y-51.0
X552.5Y-211.5
X552.5Y-212.5
X557.94Y-173.75
X563.565Y-91.965
X570.4Y-67.4
X570.4Y-68.4
X570.4Y-69.4
X570.4Y-70.4
X571.4Y-67.4
X571.4Y-68.4
X571.4Y-69.4
X571.4Y-70.4
X572.4Y-67.4
X572.4Y-68.4
X572.4Y-69.4
X572.4Y-70.4
X573.4Y-67.4
X573.4Y-68.4
X573.4Y-69.4
X573.4Y-70.4
X576.99Y-173.75
X587.0Y-136.25
X587.0Y-174.0
X587.25Y-68.0
X587.25Y-90.25
X587.25Y-119.25
X587.25Y-155.0
X587.25Y-196.0
X588.0Y-136.25
X588.0Y-137.25
X588.0Y-174.0
X588.0Y-175.0
X588.25Y-68.0
X588.25Y-69.0
X588.25Y-90.25
X588.25Y-91.25
X588.25Y-119.25
X588.25Y-120.25
X588.25Y-155.0
X588.25Y-156.0
X588.25Y-195.0
X588.25Y-196.0
T2
X50.005Y-102.0
X62.985Y-83.985
X74.105Y-109.495
X77.2Y-108.5
X79.275Y-103.275
X81.2Y-106.0
X92.3Y-122.75
X93.0Y-138.5
X94.5Y-97.75
X96.0Y-82.384
X96.85Y-87.2
X96.875Y-97.125
X97.2Y-176.155
X99.2Y-103.399
X100.2Y-106.4
X115.733Y-104.217
X122.25Y-108.25
X125.75Y-84.85
X129.0Y-209.0
X131.0Y-192.481
X138.2Y-105.2
X139.09Y-189.09
X140.115Y-207.115
X144.2Y-86.971
X147.2Y-104.6
X148.4Y-82.384
X163.2Y-208.4
X169.0Y-97.6
X174.6Y-97.8
X177.6Y-174.6
X179.405Y-167.795
X181.2Y-86.971
X187.0Y-85.0
X320.906Y-175.906
X323.925Y-167.556
X387.181Y-88.681
X388.75Y-81.5
X475.081Y-172.581
X477.715Y-165.237
X503.2Y-176.49
T3
X236.7Y-61.994
X237.0Y-84.94
X238.4Y-61.044
X238.8Y-82.4
X239.0Y-104.249
T5
X73.2Y-134.831
X73.2Y-172.931
X73.4Y-153.881
X73.477Y-208.477
X73.6Y-191.981
X74.2Y-130.644
X74.8Y-149.819
X74.8Y-168.869
X75.0Y-187.919
X78.4Y-206.969
X113.75Y-151.0
X115.25Y-200.0
X118.63Y-153.971
X122.0Y-152.8
X123.2Y-154.6
X160.25Y-189.4
X160.25Y-201.0
X163.25Y-206.0
X173.2Y-169.0
X175.5Y-136.2
X179.0Y-154.381
X199.75Y-194.3
X199.75Y-199.25
X225.0Y-206.969
X227.4Y-135.0
X229.983Y-125.6
X237.0Y-154.381
X237.6Y-184.2
X238.8Y-149.8
X245.0Y-168.8
X248.0Y-194.3
X248.25Y-200.25
X294.624Y-120.287
X299.8Y-194.3
X301.6Y-199.2
X306.0Y-155.081
X400.6Y-194.3
X400.8Y-199.4
X572.6Y-136.031
T6
X60.09Y-119.6
X60.13Y-109.5
X62.63Y-119.6
X62.67Y-109.5
X65.17Y-119.6
X65.21Y-109.5
X67.71Y-119.6
X67.75Y-109.5
X70.25Y-119.6
X70.29Y-109.5
X171.2Y-109.6
X171.2Y-119.45
X173.74Y-109.6
X173.74Y-119.45
X176.28Y-109.6
X176.28Y-119.45
X178.82Y-109.6
X178.82Y-119.45
X232.725Y-109.6
X232.725Y-119.6
X235.265Y-109.6
X235.265Y-119.6
X511.25Y-161.88
X511.25Y-164.42
X511.25Y-166.96
X511.25Y-169.5
X511.25Y-172.04
X568.92Y-109.0
X569.17Y-120.4
X571.46Y-109.0
X571.71Y-120.4
X574.0Y-109.0
X574.25Y-120.4
T7
X42.44Y-98.74
X42.44Y-125.26
X42.44Y-144.31
X42.44Y-163.36
X42.44Y-182.41
X42.44Y-201.46
X48.79Y-96.2
X48.79Y-122.72
X48.79Y-141.77
X48.79Y-160.82
X48.79Y-179.87
X48.79Y-198.92
X51.965Y-56.06
X51.965Y-77.4
X58.315Y-53.52
X58.315Y-74.86
X61.49Y-98.74
X61.49Y-125.26
X61.49Y-144.31
X61.49Y-163.36
X61.49Y-182.41
X61.49Y-201.46
X67.84Y-96.2
X67.84Y-122.72
X67.84Y-141.77
X67.84Y-160.82
X67.84Y-179.87
X67.84Y-198.92
X80.54Y-98.74
X80.54Y-125.26
X80.54Y-144.31
X80.54Y-163.36
X80.54Y-182.41
X80.54Y-201.46
X86.89Y-96.2
X86.89Y-122.72
X86.89Y-141.77
X86.89Y-160.82
X86.89Y-179.87
X86.89Y-198.92
X90.065Y-56.06
X90.065Y-77.4
X96.415Y-53.52
X96.415Y-74.86
X99.59Y-98.74
X99.59Y-125.26
X99.59Y-144.31
X99.59Y-163.36
X99.59Y-182.41
X99.59Y-201.46
X105.94Y-96.2
X105.94Y-122.72
X105.94Y-141.77
X105.94Y-160.82
X105.94Y-179.87
X105.94Y-198.92
X128.165Y-144.31
X128.165Y-182.41
X128.165Y-201.46
X132.927Y-125.26
X132.927Y-163.36
X134.515Y-141.77
X134.515Y-179.87
X134.515Y-198.92
X137.69Y-56.06
X137.69Y-77.4
X137.69Y-98.74
X139.278Y-122.72
X139.278Y-160.82
X144.04Y-53.52
X144.04Y-74.86
X144.04Y-96.2
X147.215Y-182.41
X147.215Y-201.46
X151.977Y-144.31
X153.565Y-179.87
X153.565Y-198.92
X156.74Y-125.26
X158.327Y-141.77
X161.502Y-163.36
X163.09Y-122.72
X166.265Y-98.74
X166.265Y-201.46
X167.852Y-160.82
X171.028Y-182.41
X172.615Y-96.2
X172.615Y-198.92
X175.79Y-56.06
X175.79Y-77.4
X175.79Y-125.26
X177.377Y-179.87
X180.552Y-144.31
X182.14Y-53.52
X182.14Y-74.86
X182.14Y-122.72
X185.315Y-98.74
X185.315Y-201.46
X186.903Y-141.77
X190.077Y-163.36
X191.665Y-96.2
X191.665Y-198.92
X194.84Y-125.26
X196.427Y-160.82
X199.602Y-182.41
X201.19Y-122.72
X204.365Y-98.74
X204.365Y-144.31
X205.952Y-179.87
X209.127Y-201.46
X210.715Y-96.2
X210.715Y-141.77
X213.89Y-56.06
X213.89Y-77.4
X213.89Y-125.26
X213.89Y-163.36
X215.477Y-198.92
X220.24Y-53.52
X220.24Y-74.86
X220.24Y-122.72
X220.24Y-160.82
X223.415Y-98.74
X223.415Y-144.31
X223.415Y-182.41
X229.765Y-96.2
X229.765Y-141.77
X229.765Y-179.87
X232.94Y-125.26
X232.94Y-163.36
X232.94Y-201.46
X239.29Y-122.72
X239.29Y-160.82
X239.29Y-198.92
X242.465Y-98.74
X242.465Y-144.31
X242.465Y-182.41
X248.815Y-96.2
X248.815Y-141.77
X248.815Y-179.87
X251.99Y-56.06
X251.99Y-77.4
X251.99Y-125.26
X251.99Y-163.36
X256.752Y-201.46
X258.34Y-53.52
X258.34Y-74.86
X258.34Y-122.72
X258.34Y-160.82
X261.515Y-98.74
X261.515Y-144.31
X261.515Y-182.41
X263.102Y-198.92
X267.865Y-96.2
X267.865Y-141.77
X267.865Y-179.87
X271.04Y-125.26
X271.04Y-163.36
X277.39Y-122.72
X277.39Y-160.82
X280.565Y-98.74
X280.565Y-144.31
X280.565Y-182.41
X285.327Y-201.46
X286.915Y-96.2
X286.915Y-141.77
X286.915Y-179.87
X290.09Y-56.06
X290.09Y-77.4
X290.09Y-125.26
X290.09Y-163.36
X291.678Y-198.92
X296.44Y-53.52
X296.44Y-74.86
X296.44Y-122.72
X296.44Y-160.82
X299.615Y-98.74
X299.615Y-144.31
X299.615Y-182.41
X305.965Y-96.2
X305.965Y-141.77
X305.965Y-179.87
X309.14Y-125.26
X309.14Y-163.36
X309.14Y-201.46
X315.49Y-122.72
X315.49Y-160.82
X315.49Y-198.92
X318.665Y-98.74
X318.665Y-144.31
X318.665Y-182.41
X325.015Y-96.2
X325.015Y-141.77
X325.015Y-179.87
X328.19Y-56.06
X328.19Y-77.4
X328.19Y-125.26
X328.19Y-163.36
X332.952Y-201.46
X334.54Y-53.52
X334.54Y-74.86
X334.54Y-122.72
X334.54Y-160.82
X337.715Y-98.74
X337.715Y-144.31
X337.715Y-182.41
X339.303Y-198.92
X344.065Y-96.2
X344.065Y-141.77
X344.065Y-179.87
X347.24Y-125.26
X347.24Y-163.36
X353.59Y-122.72
X353.59Y-160.82
X356.765Y-98.74
X356.765Y-144.31
X356.765Y-182.41
X361.527Y-201.46
X363.115Y-96.2
X363.115Y-141.77
X363.115Y-179.87
X366.29Y-56.06
X366.29Y-77.4
X366.29Y-125.26
X366.29Y-163.36
X367.877Y-198.92
X372.64Y-53.52
X372.64Y-74.86
X372.64Y-122.72
X372.64Y-160.82
X375.815Y-98.74
X375.815Y-144.31
X375.815Y-182.41
X382.165Y-96.2
X382.165Y-141.77
X382.165Y-179.87
X385.34Y-125.26
X385.34Y-163.36
X385.34Y-201.46
X391.69Y-122.72
X391.69Y-160.82
X391.69Y-198.92
X394.865Y-98.74
X394.865Y-144.31
X394.865Y-182.41
X401.215Y-96.2
X401.215Y-141.77
X401.215Y-179.87
X404.39Y-56.06
X404.39Y-77.4
X404.39Y-125.26
X404.39Y-163.36
X409.152Y-201.46
X410.74Y-53.52
X410.74Y-74.86
X410.74Y-122.72
X410.74Y-160.82
X413.915Y-98.74
X413.915Y-144.31
X415.502Y-198.92
X418.678Y-182.41
X420.265Y-96.2
X420.265Y-141.77
X423.44Y-125.26
X425.027Y-179.87
X428.202Y-163.36
X429.79Y-122.72
X432.965Y-98.74
X432.965Y-201.46
X434.552Y-160.82
X437.727Y-144.31
X439.315Y-96.2
X439.315Y-198.92
X442.49Y-56.06
X442.49Y-77.4
X442.49Y-125.26
X444.077Y-141.77
X447.252Y-182.41
X448.84Y-53.52
X448.84Y-74.86
X448.84Y-122.72
X452.015Y-98.74
X452.015Y-201.46
X453.602Y-179.87
X456.777Y-163.36
X458.365Y-96.2
X458.365Y-198.92
X461.54Y-125.26
X463.127Y-160.82
X466.302Y-144.31
X467.89Y-122.72
X471.065Y-182.41
X471.065Y-201.46
X472.652Y-141.77
X477.415Y-179.87
X477.415Y-198.92
X480.59Y-56.06
X480.59Y-77.4
X480.59Y-98.74
X485.352Y-125.26
X485.352Y-163.36
X486.94Y-53.52
X486.94Y-74.86
X486.94Y-96.2
X490.115Y-144.31
X490.115Y-182.41
X490.115Y-201.46
X491.702Y-122.72
X491.702Y-160.82
X496.465Y-141.77
X496.465Y-179.87
X496.465Y-198.92
X518.69Y-98.74
X518.69Y-125.26
X518.69Y-144.31
X518.69Y-163.36
X518.69Y-182.41
X518.69Y-201.46
X525.04Y-96.2
X525.04Y-122.72
X525.04Y-141.77
X525.04Y-160.82
X525.04Y-179.87
X525.04Y-198.92
X528.215Y-56.06
X528.215Y-77.4
X534.565Y-53.52
X534.565Y-74.86
X537.74Y-98.74
X537.74Y-125.26
X537.74Y-144.31
X537.74Y-163.36
X537.74Y-182.41
X537.74Y-201.46
X544.09Y-96.2
X544.09Y-122.72
X544.09Y-141.77
X544.09Y-160.82
X544.09Y-179.87
X544.09Y-198.92
X556.79Y-98.74
X556.79Y-125.26
X556.79Y-144.31
X556.79Y-163.36
X556.79Y-182.41
X556.79Y-201.46
X563.14Y-96.2
X563.14Y-122.72
X563.14Y-141.77
X563.14Y-160.82
X563.14Y-179.87
X563.14Y-198.92
X566.315Y-56.06
X566.315Y-77.4
X572.665Y-53.52
X572.665Y-74.86
X575.84Y-98.74
X575.84Y-125.26
X575.84Y-144.31
X575.84Y-163.36
X575.84Y-182.41
X575.84Y-201.46
X582.19Y-96.2
X582.19Y-122.72
X582.19Y-141.77
X582.19Y-160.82
X582.19Y-179.87
X582.19Y-198.92
T4
X295.57Y-113.005G85X295.57Y-112.405
G05
X295.57Y-117.385G85X295.57Y-116.385
G05
X304.21Y-113.005G85X304.21Y-112.405
G05
X304.21Y-117.385G85X304.21Y-116.385
G05
M30
