G04 #@! TF.GenerationSoftware,KiCad,Pcbnew,8.0.5-8.0.5-0~ubuntu20.04.1*
G04 #@! TF.CreationDate,2024-11-01T17:59:00+00:00*
G04 #@! TF.ProjectId,Hyper7-Evo,48797065-7237-42d4-9576-6f2e6b696361,rev?*
G04 #@! TF.SameCoordinates,Original*
G04 #@! TF.FileFunction,Profile,NP*
%FSLAX46Y46*%
G04 Gerber Fmt 4.6, Leading zero omitted, Abs format (unit mm)*
G04 Created by KiCad (PCBNEW 8.0.5-8.0.5-0~ubuntu20.04.1) date 2024-11-01 17:59:00*
%MOMM*%
%LPD*%
G01*
G04 APERTURE LIST*
G04 #@! TA.AperFunction,Profile*
%ADD10C,0.050000*%
G04 #@! TD*
G04 #@! TA.AperFunction,Profile*
%ADD11C,0.076200*%
G04 #@! TD*
G04 APERTURE END LIST*
D10*
X574800000Y-117600000D02*
G75*
G02*
X573600000Y-117600000I-600000J0D01*
G01*
X573600000Y-117600000D02*
G75*
G02*
X574800000Y-117600000I600000J0D01*
G01*
X449400000Y-111400000D02*
G75*
G02*
X448200000Y-111400000I-600000J0D01*
G01*
X448200000Y-111400000D02*
G75*
G02*
X449400000Y-111400000I600000J0D01*
G01*
X439800000Y-110750000D02*
X439800000Y-118250000D01*
X169600000Y-111400000D02*
G75*
G02*
X168400000Y-111400000I-600000J0D01*
G01*
X168400000Y-111400000D02*
G75*
G02*
X169600000Y-111400000I600000J0D01*
G01*
X174400000Y-117600000D02*
G75*
G02*
X173200000Y-117600000I-600000J0D01*
G01*
X173200000Y-117600000D02*
G75*
G02*
X174400000Y-117600000I600000J0D01*
G01*
X294800000Y-111800000D02*
X305000000Y-111800000D01*
X441400000Y-111400000D02*
G75*
G02*
X440200000Y-111400000I-600000J0D01*
G01*
X440200000Y-111400000D02*
G75*
G02*
X441400000Y-111400000I600000J0D01*
G01*
X452600000Y-111400000D02*
G75*
G02*
X451400000Y-111400000I-600000J0D01*
G01*
X451400000Y-111400000D02*
G75*
G02*
X452600000Y-111400000I600000J0D01*
G01*
X451000000Y-117600000D02*
G75*
G02*
X449800000Y-117600000I-600000J0D01*
G01*
X449800000Y-117600000D02*
G75*
G02*
X451000000Y-117600000I600000J0D01*
G01*
X294800000Y-111800000D02*
X294800000Y-118250000D01*
X453000000Y-118250000D02*
X453000000Y-110750000D01*
X60400000Y-117600000D02*
G75*
G02*
X59200000Y-117600000I-600000J0D01*
G01*
X59200000Y-117600000D02*
G75*
G02*
X60400000Y-117600000I600000J0D01*
G01*
X168000000Y-118250000D02*
X72000000Y-118250000D01*
X171200000Y-117600000D02*
G75*
G02*
X170000000Y-117600000I-600000J0D01*
G01*
X170000000Y-117600000D02*
G75*
G02*
X171200000Y-117600000I600000J0D01*
G01*
X180800000Y-117600000D02*
G75*
G02*
X179600000Y-117600000I-600000J0D01*
G01*
X179600000Y-117600000D02*
G75*
G02*
X180800000Y-117600000I600000J0D01*
G01*
X570000000Y-111400000D02*
G75*
G02*
X568800000Y-111400000I-600000J0D01*
G01*
X568800000Y-111400000D02*
G75*
G02*
X570000000Y-111400000I600000J0D01*
G01*
X174400000Y-111400000D02*
G75*
G02*
X173200000Y-111400000I-600000J0D01*
G01*
X173200000Y-111400000D02*
G75*
G02*
X174400000Y-111400000I600000J0D01*
G01*
X70000000Y-111400000D02*
G75*
G02*
X68800000Y-111400000I-600000J0D01*
G01*
X68800000Y-111400000D02*
G75*
G02*
X70000000Y-111400000I600000J0D01*
G01*
X134500000Y-110750000D02*
X148500000Y-110750000D01*
X62000000Y-111400000D02*
G75*
G02*
X60800000Y-111400000I-600000J0D01*
G01*
X60800000Y-111400000D02*
G75*
G02*
X62000000Y-111400000I600000J0D01*
G01*
X169600000Y-117600000D02*
G75*
G02*
X168400000Y-117600000I-600000J0D01*
G01*
X168400000Y-117600000D02*
G75*
G02*
X169600000Y-117600000I600000J0D01*
G01*
X578400000Y-110750000D02*
X589250000Y-110750000D01*
X570000000Y-117600000D02*
G75*
G02*
X568800000Y-117600000I-600000J0D01*
G01*
X568800000Y-117600000D02*
G75*
G02*
X570000000Y-117600000I600000J0D01*
G01*
X71600000Y-117600000D02*
G75*
G02*
X70400000Y-117600000I-600000J0D01*
G01*
X70400000Y-117600000D02*
G75*
G02*
X71600000Y-117600000I600000J0D01*
G01*
X565200000Y-118250000D02*
X453000000Y-118250000D01*
X72000000Y-110750000D02*
X124500000Y-110750000D01*
X172800000Y-117600000D02*
G75*
G02*
X171600000Y-117600000I-600000J0D01*
G01*
X171600000Y-117600000D02*
G75*
G02*
X172800000Y-117600000I600000J0D01*
G01*
X58800000Y-118250000D02*
X36750000Y-118250000D01*
X181200000Y-118250000D02*
X181200000Y-110750000D01*
X446200000Y-111400000D02*
G75*
G02*
X445000000Y-111400000I-600000J0D01*
G01*
X445000000Y-111400000D02*
G75*
G02*
X446200000Y-111400000I600000J0D01*
G01*
X451000000Y-111400000D02*
G75*
G02*
X449800000Y-111400000I-600000J0D01*
G01*
X449800000Y-111400000D02*
G75*
G02*
X451000000Y-111400000I600000J0D01*
G01*
X573200000Y-111400000D02*
G75*
G02*
X572000000Y-111400000I-600000J0D01*
G01*
X572000000Y-111400000D02*
G75*
G02*
X573200000Y-111400000I600000J0D01*
G01*
X66800000Y-117600000D02*
G75*
G02*
X65600000Y-117600000I-600000J0D01*
G01*
X65600000Y-117600000D02*
G75*
G02*
X66800000Y-117600000I600000J0D01*
G01*
X62000000Y-117600000D02*
G75*
G02*
X60800000Y-117600000I-600000J0D01*
G01*
X60800000Y-117600000D02*
G75*
G02*
X62000000Y-117600000I600000J0D01*
G01*
X66800000Y-111400000D02*
G75*
G02*
X65600000Y-111400000I-600000J0D01*
G01*
X65600000Y-111400000D02*
G75*
G02*
X66800000Y-111400000I600000J0D01*
G01*
X578000000Y-111400000D02*
G75*
G02*
X576800000Y-111400000I-600000J0D01*
G01*
X576800000Y-111400000D02*
G75*
G02*
X578000000Y-111400000I600000J0D01*
G01*
X179200000Y-111400000D02*
G75*
G02*
X178000000Y-111400000I-600000J0D01*
G01*
X178000000Y-111400000D02*
G75*
G02*
X179200000Y-111400000I600000J0D01*
G01*
X574800000Y-111400000D02*
G75*
G02*
X573600000Y-111400000I-600000J0D01*
G01*
X573600000Y-111400000D02*
G75*
G02*
X574800000Y-111400000I600000J0D01*
G01*
X180800000Y-111400000D02*
G75*
G02*
X179600000Y-111400000I-600000J0D01*
G01*
X179600000Y-111400000D02*
G75*
G02*
X180800000Y-111400000I600000J0D01*
G01*
X172800000Y-111400000D02*
G75*
G02*
X171600000Y-111400000I-600000J0D01*
G01*
X171600000Y-111400000D02*
G75*
G02*
X172800000Y-111400000I600000J0D01*
G01*
X441400000Y-117600000D02*
G75*
G02*
X440200000Y-117600000I-600000J0D01*
G01*
X440200000Y-117600000D02*
G75*
G02*
X441400000Y-117600000I600000J0D01*
G01*
X179200000Y-117600000D02*
G75*
G02*
X178000000Y-117600000I-600000J0D01*
G01*
X178000000Y-117600000D02*
G75*
G02*
X179200000Y-117600000I600000J0D01*
G01*
X449400000Y-117600000D02*
G75*
G02*
X448200000Y-117600000I-600000J0D01*
G01*
X448200000Y-117600000D02*
G75*
G02*
X449400000Y-117600000I600000J0D01*
G01*
X568400000Y-117600000D02*
G75*
G02*
X567200000Y-117600000I-600000J0D01*
G01*
X567200000Y-117600000D02*
G75*
G02*
X568400000Y-117600000I600000J0D01*
G01*
X452600000Y-117600000D02*
G75*
G02*
X451400000Y-117600000I-600000J0D01*
G01*
X451400000Y-117600000D02*
G75*
G02*
X452600000Y-117600000I600000J0D01*
G01*
X566800000Y-117600000D02*
G75*
G02*
X565600000Y-117600000I-600000J0D01*
G01*
X565600000Y-117600000D02*
G75*
G02*
X566800000Y-117600000I600000J0D01*
G01*
X171200000Y-111400000D02*
G75*
G02*
X170000000Y-111400000I-600000J0D01*
G01*
X170000000Y-111400000D02*
G75*
G02*
X171200000Y-111400000I600000J0D01*
G01*
X447800000Y-111400000D02*
G75*
G02*
X446600000Y-111400000I-600000J0D01*
G01*
X446600000Y-111400000D02*
G75*
G02*
X447800000Y-111400000I600000J0D01*
G01*
X571600000Y-111400000D02*
G75*
G02*
X570400000Y-111400000I-600000J0D01*
G01*
X570400000Y-111400000D02*
G75*
G02*
X571600000Y-111400000I600000J0D01*
G01*
X439800000Y-118250000D02*
X305000000Y-118250000D01*
X158500000Y-110750000D02*
X168000000Y-110750000D01*
X501250000Y-110750000D02*
X565200000Y-110750000D01*
X589250000Y-118250000D02*
X578400000Y-118250000D01*
X576400000Y-111400000D02*
G75*
G02*
X575200000Y-111400000I-600000J0D01*
G01*
X575200000Y-111400000D02*
G75*
G02*
X576400000Y-111400000I600000J0D01*
G01*
X36750000Y-110750000D02*
X36750000Y-49000000D01*
X443000000Y-111400000D02*
G75*
G02*
X441800000Y-111400000I-600000J0D01*
G01*
X441800000Y-111400000D02*
G75*
G02*
X443000000Y-111400000I600000J0D01*
G01*
X305000000Y-111800000D02*
X305000000Y-118250000D01*
X453000000Y-110750000D02*
X467500000Y-110750000D01*
X68400000Y-111400000D02*
G75*
G02*
X67200000Y-111400000I-600000J0D01*
G01*
X67200000Y-111400000D02*
G75*
G02*
X68400000Y-111400000I600000J0D01*
G01*
X589250000Y-110750000D02*
X589250000Y-49000000D01*
X177600000Y-111400000D02*
G75*
G02*
X176400000Y-111400000I-600000J0D01*
G01*
X176400000Y-111400000D02*
G75*
G02*
X177600000Y-111400000I600000J0D01*
G01*
X63600000Y-117600000D02*
G75*
G02*
X62400000Y-117600000I-600000J0D01*
G01*
X62400000Y-117600000D02*
G75*
G02*
X63600000Y-117600000I600000J0D01*
G01*
X177600000Y-117600000D02*
G75*
G02*
X176400000Y-117600000I-600000J0D01*
G01*
X176400000Y-117600000D02*
G75*
G02*
X177600000Y-117600000I600000J0D01*
G01*
X168000000Y-110750000D02*
X168000000Y-118250000D01*
X568400000Y-111400000D02*
G75*
G02*
X567200000Y-111400000I-600000J0D01*
G01*
X567200000Y-111400000D02*
G75*
G02*
X568400000Y-111400000I600000J0D01*
G01*
X63600000Y-111400000D02*
G75*
G02*
X62400000Y-111400000I-600000J0D01*
G01*
X62400000Y-111400000D02*
G75*
G02*
X63600000Y-111400000I600000J0D01*
G01*
X72000000Y-118250000D02*
X72000000Y-110750000D01*
X578000000Y-117600000D02*
G75*
G02*
X576800000Y-117600000I-600000J0D01*
G01*
X576800000Y-117600000D02*
G75*
G02*
X578000000Y-117600000I600000J0D01*
G01*
X36750000Y-213500000D02*
X589250000Y-213500000D01*
X571600000Y-117600000D02*
G75*
G02*
X570400000Y-117600000I-600000J0D01*
G01*
X570400000Y-117600000D02*
G75*
G02*
X571600000Y-117600000I600000J0D01*
G01*
X58800000Y-110750000D02*
X58800000Y-118250000D01*
X68400000Y-117600000D02*
G75*
G02*
X67200000Y-117600000I-600000J0D01*
G01*
X67200000Y-117600000D02*
G75*
G02*
X68400000Y-117600000I600000J0D01*
G01*
X578400000Y-118250000D02*
X578400000Y-110750000D01*
X443000000Y-117600000D02*
G75*
G02*
X441800000Y-117600000I-600000J0D01*
G01*
X441800000Y-117600000D02*
G75*
G02*
X443000000Y-117600000I600000J0D01*
G01*
X477500000Y-110750000D02*
G75*
G02*
X467500000Y-110750000I-5000000J1250000D01*
G01*
X446200000Y-117600000D02*
G75*
G02*
X445000000Y-117600000I-600000J0D01*
G01*
X445000000Y-117600000D02*
G75*
G02*
X446200000Y-117600000I600000J0D01*
G01*
X447800000Y-117600000D02*
G75*
G02*
X446600000Y-117600000I-600000J0D01*
G01*
X446600000Y-117600000D02*
G75*
G02*
X447800000Y-117600000I600000J0D01*
G01*
X477500000Y-110750000D02*
X491250000Y-110750000D01*
X70000000Y-117600000D02*
G75*
G02*
X68800000Y-117600000I-600000J0D01*
G01*
X68800000Y-117600000D02*
G75*
G02*
X70000000Y-117600000I600000J0D01*
G01*
X589250000Y-213500000D02*
X589250000Y-118250000D01*
X573200000Y-117600000D02*
G75*
G02*
X572000000Y-117600000I-600000J0D01*
G01*
X572000000Y-117600000D02*
G75*
G02*
X573200000Y-117600000I600000J0D01*
G01*
X565200000Y-110750000D02*
X565200000Y-118250000D01*
X576400000Y-117600000D02*
G75*
G02*
X575200000Y-117600000I-600000J0D01*
G01*
X575200000Y-117600000D02*
G75*
G02*
X576400000Y-117600000I600000J0D01*
G01*
X36750000Y-118250000D02*
X36750000Y-213500000D01*
X566800000Y-111400000D02*
G75*
G02*
X565600000Y-111400000I-600000J0D01*
G01*
X565600000Y-111400000D02*
G75*
G02*
X566800000Y-111400000I600000J0D01*
G01*
X294800000Y-118250000D02*
X181200000Y-118250000D01*
X65200000Y-111400000D02*
G75*
G02*
X64000000Y-111400000I-600000J0D01*
G01*
X64000000Y-111400000D02*
G75*
G02*
X65200000Y-111400000I600000J0D01*
G01*
X60400000Y-111400000D02*
G75*
G02*
X59200000Y-111400000I-600000J0D01*
G01*
X59200000Y-111400000D02*
G75*
G02*
X60400000Y-111400000I600000J0D01*
G01*
X176000000Y-111400000D02*
G75*
G02*
X174800000Y-111400000I-600000J0D01*
G01*
X174800000Y-111400000D02*
G75*
G02*
X176000000Y-111400000I600000J0D01*
G01*
X36750000Y-110750000D02*
X58800000Y-110750000D01*
X589250000Y-49000000D02*
X36750000Y-49000000D01*
X134500000Y-110750000D02*
G75*
G02*
X124500000Y-110750000I-5000000J1250000D01*
G01*
X65200000Y-117600000D02*
G75*
G02*
X64000000Y-117600000I-600000J0D01*
G01*
X64000000Y-117600000D02*
G75*
G02*
X65200000Y-117600000I600000J0D01*
G01*
X176000000Y-117600000D02*
G75*
G02*
X174800000Y-117600000I-600000J0D01*
G01*
X174800000Y-117600000D02*
G75*
G02*
X176000000Y-117600000I600000J0D01*
G01*
X501250000Y-110750000D02*
G75*
G02*
X491250000Y-110750000I-5000000J1250000D01*
G01*
X71600000Y-111400000D02*
G75*
G02*
X70400000Y-111400000I-600000J0D01*
G01*
X70400000Y-111400000D02*
G75*
G02*
X71600000Y-111400000I600000J0D01*
G01*
X158500000Y-110750000D02*
G75*
G02*
X148500000Y-110750000I-5000000J1250000D01*
G01*
X181200000Y-110750000D02*
X439800000Y-110750000D01*
X444600000Y-117600000D02*
G75*
G02*
X443400000Y-117600000I-600000J0D01*
G01*
X443400000Y-117600000D02*
G75*
G02*
X444600000Y-117600000I600000J0D01*
G01*
X444600000Y-111400000D02*
G75*
G02*
X443400000Y-111400000I-600000J0D01*
G01*
X443400000Y-111400000D02*
G75*
G02*
X444600000Y-111400000I600000J0D01*
G01*
D11*
X531009000Y-84178000D02*
X531009000Y-85702000D01*
X533041000Y-84178000D02*
X533041000Y-85702000D01*
X531009000Y-84178000D02*
G75*
G02*
X533041000Y-84178000I1016000J0D01*
G01*
X533041000Y-85702000D02*
G75*
G02*
X531009000Y-85702000I-1016000J0D01*
G01*
X188109000Y-208238000D02*
X188109000Y-209762000D01*
X190141000Y-208238000D02*
X190141000Y-209762000D01*
X188109000Y-208238000D02*
G75*
G02*
X190141000Y-208238000I1016000J0D01*
G01*
X190141000Y-209762000D02*
G75*
G02*
X188109000Y-209762000I-1016000J0D01*
G01*
X130959000Y-151088000D02*
X130959000Y-152612000D01*
X132991000Y-151088000D02*
X132991000Y-152612000D01*
X130959000Y-151088000D02*
G75*
G02*
X132991000Y-151088000I1016000J0D01*
G01*
X132991000Y-152612000D02*
G75*
G02*
X130959000Y-152612000I-1016000J0D01*
G01*
X83334000Y-132038000D02*
X83334000Y-133562000D01*
X85366000Y-132038000D02*
X85366000Y-133562000D01*
X83334000Y-132038000D02*
G75*
G02*
X85366000Y-132038000I1016000J0D01*
G01*
X85366000Y-133562000D02*
G75*
G02*
X83334000Y-133562000I-1016000J0D01*
G01*
X559584000Y-208238000D02*
X559584000Y-209762000D01*
X561616000Y-208238000D02*
X561616000Y-209762000D01*
X559584000Y-208238000D02*
G75*
G02*
X561616000Y-208238000I1016000J0D01*
G01*
X561616000Y-209762000D02*
G75*
G02*
X559584000Y-209762000I-1016000J0D01*
G01*
X311934000Y-170138000D02*
X311934000Y-171662000D01*
X313966000Y-170138000D02*
X313966000Y-171662000D01*
X311934000Y-170138000D02*
G75*
G02*
X313966000Y-170138000I1016000J0D01*
G01*
X313966000Y-171662000D02*
G75*
G02*
X311934000Y-171662000I-1016000J0D01*
G01*
X202396500Y-189188000D02*
X202396500Y-190712000D01*
X204428500Y-189188000D02*
X204428500Y-190712000D01*
X202396500Y-189188000D02*
G75*
G02*
X204428500Y-189188000I1016000J0D01*
G01*
X204428500Y-190712000D02*
G75*
G02*
X202396500Y-190712000I-1016000J0D01*
G01*
X192871500Y-170138000D02*
X192871500Y-171662000D01*
X194903500Y-170138000D02*
X194903500Y-171662000D01*
X192871500Y-170138000D02*
G75*
G02*
X194903500Y-170138000I1016000J0D01*
G01*
X194903500Y-171662000D02*
G75*
G02*
X192871500Y-171662000I-1016000J0D01*
G01*
X254784000Y-132038000D02*
X254784000Y-133562000D01*
X256816000Y-132038000D02*
X256816000Y-133562000D01*
X254784000Y-132038000D02*
G75*
G02*
X256816000Y-132038000I1016000J0D01*
G01*
X256816000Y-133562000D02*
G75*
G02*
X254784000Y-133562000I-1016000J0D01*
G01*
X578634000Y-170138000D02*
X578634000Y-171662000D01*
X580666000Y-170138000D02*
X580666000Y-171662000D01*
X578634000Y-170138000D02*
G75*
G02*
X580666000Y-170138000I1016000J0D01*
G01*
X580666000Y-171662000D02*
G75*
G02*
X578634000Y-171662000I-1016000J0D01*
G01*
X45234000Y-132038000D02*
X45234000Y-133562000D01*
X47266000Y-132038000D02*
X47266000Y-133562000D01*
X45234000Y-132038000D02*
G75*
G02*
X47266000Y-132038000I1016000J0D01*
G01*
X47266000Y-133562000D02*
G75*
G02*
X45234000Y-133562000I-1016000J0D01*
G01*
X207159000Y-105518000D02*
X207159000Y-107042000D01*
X209191000Y-105518000D02*
X209191000Y-107042000D01*
X207159000Y-105518000D02*
G75*
G02*
X209191000Y-105518000I1016000J0D01*
G01*
X209191000Y-107042000D02*
G75*
G02*
X207159000Y-107042000I-1016000J0D01*
G01*
X135721500Y-132038000D02*
X135721500Y-133562000D01*
X137753500Y-132038000D02*
X137753500Y-133562000D01*
X135721500Y-132038000D02*
G75*
G02*
X137753500Y-132038000I1016000J0D01*
G01*
X137753500Y-133562000D02*
G75*
G02*
X135721500Y-133562000I-1016000J0D01*
G01*
X235734000Y-208238000D02*
X235734000Y-209762000D01*
X237766000Y-208238000D02*
X237766000Y-209762000D01*
X235734000Y-208238000D02*
G75*
G02*
X237766000Y-208238000I1016000J0D01*
G01*
X237766000Y-209762000D02*
G75*
G02*
X235734000Y-209762000I-1016000J0D01*
G01*
X578634000Y-189188000D02*
X578634000Y-190712000D01*
X580666000Y-189188000D02*
X580666000Y-190712000D01*
X578634000Y-189188000D02*
G75*
G02*
X580666000Y-189188000I1016000J0D01*
G01*
X580666000Y-190712000D02*
G75*
G02*
X578634000Y-190712000I-1016000J0D01*
G01*
X102384000Y-105518000D02*
X102384000Y-107042000D01*
X104416000Y-105518000D02*
X104416000Y-107042000D01*
X102384000Y-105518000D02*
G75*
G02*
X104416000Y-105518000I1016000J0D01*
G01*
X104416000Y-107042000D02*
G75*
G02*
X102384000Y-107042000I-1016000J0D01*
G01*
X264309000Y-151088000D02*
X264309000Y-152612000D01*
X266341000Y-151088000D02*
X266341000Y-152612000D01*
X264309000Y-151088000D02*
G75*
G02*
X266341000Y-151088000I1016000J0D01*
G01*
X266341000Y-152612000D02*
G75*
G02*
X264309000Y-152612000I-1016000J0D01*
G01*
X102384000Y-170138000D02*
X102384000Y-171662000D01*
X104416000Y-170138000D02*
X104416000Y-171662000D01*
X102384000Y-170138000D02*
G75*
G02*
X104416000Y-170138000I1016000J0D01*
G01*
X104416000Y-171662000D02*
G75*
G02*
X102384000Y-171662000I-1016000J0D01*
G01*
X83334000Y-170138000D02*
X83334000Y-171662000D01*
X85366000Y-170138000D02*
X85366000Y-171662000D01*
X83334000Y-170138000D02*
G75*
G02*
X85366000Y-170138000I1016000J0D01*
G01*
X85366000Y-171662000D02*
G75*
G02*
X83334000Y-171662000I-1016000J0D01*
G01*
X207159000Y-151088000D02*
X207159000Y-152612000D01*
X209191000Y-151088000D02*
X209191000Y-152612000D01*
X207159000Y-151088000D02*
G75*
G02*
X209191000Y-151088000I1016000J0D01*
G01*
X209191000Y-152612000D02*
G75*
G02*
X207159000Y-152612000I-1016000J0D01*
G01*
X292884000Y-62838000D02*
X292884000Y-64362000D01*
X294916000Y-62838000D02*
X294916000Y-64362000D01*
X292884000Y-62838000D02*
G75*
G02*
X294916000Y-62838000I1016000J0D01*
G01*
X294916000Y-64362000D02*
G75*
G02*
X292884000Y-64362000I-1016000J0D01*
G01*
X473859000Y-189188000D02*
X473859000Y-190712000D01*
X475891000Y-189188000D02*
X475891000Y-190712000D01*
X473859000Y-189188000D02*
G75*
G02*
X475891000Y-189188000I1016000J0D01*
G01*
X475891000Y-190712000D02*
G75*
G02*
X473859000Y-190712000I-1016000J0D01*
G01*
X292884000Y-132038000D02*
X292884000Y-133562000D01*
X294916000Y-132038000D02*
X294916000Y-133562000D01*
X292884000Y-132038000D02*
G75*
G02*
X294916000Y-132038000I1016000J0D01*
G01*
X294916000Y-133562000D02*
G75*
G02*
X292884000Y-133562000I-1016000J0D01*
G01*
X440521500Y-151088000D02*
X440521500Y-152612000D01*
X442553500Y-151088000D02*
X442553500Y-152612000D01*
X440521500Y-151088000D02*
G75*
G02*
X442553500Y-151088000I1016000J0D01*
G01*
X442553500Y-152612000D02*
G75*
G02*
X440521500Y-152612000I-1016000J0D01*
G01*
X188109000Y-105518000D02*
X188109000Y-107042000D01*
X190141000Y-105518000D02*
X190141000Y-107042000D01*
X188109000Y-105518000D02*
G75*
G02*
X190141000Y-105518000I1016000J0D01*
G01*
X190141000Y-107042000D02*
G75*
G02*
X188109000Y-107042000I-1016000J0D01*
G01*
X350034000Y-132038000D02*
X350034000Y-133562000D01*
X352066000Y-132038000D02*
X352066000Y-133562000D01*
X350034000Y-132038000D02*
G75*
G02*
X352066000Y-132038000I1016000J0D01*
G01*
X352066000Y-133562000D02*
G75*
G02*
X350034000Y-133562000I-1016000J0D01*
G01*
X83334000Y-208238000D02*
X83334000Y-209762000D01*
X85366000Y-208238000D02*
X85366000Y-209762000D01*
X83334000Y-208238000D02*
G75*
G02*
X85366000Y-208238000I1016000J0D01*
G01*
X85366000Y-209762000D02*
G75*
G02*
X83334000Y-209762000I-1016000J0D01*
G01*
X569109000Y-84178000D02*
X569109000Y-85702000D01*
X571141000Y-84178000D02*
X571141000Y-85702000D01*
X569109000Y-84178000D02*
G75*
G02*
X571141000Y-84178000I1016000J0D01*
G01*
X571141000Y-85702000D02*
G75*
G02*
X569109000Y-85702000I-1016000J0D01*
G01*
X445284000Y-62838000D02*
X445284000Y-64362000D01*
X447316000Y-62838000D02*
X447316000Y-64362000D01*
X445284000Y-62838000D02*
G75*
G02*
X447316000Y-62838000I1016000J0D01*
G01*
X447316000Y-64362000D02*
G75*
G02*
X445284000Y-64362000I-1016000J0D01*
G01*
X340509000Y-151088000D02*
X340509000Y-152612000D01*
X342541000Y-151088000D02*
X342541000Y-152612000D01*
X340509000Y-151088000D02*
G75*
G02*
X342541000Y-151088000I1016000J0D01*
G01*
X342541000Y-152612000D02*
G75*
G02*
X340509000Y-152612000I-1016000J0D01*
G01*
X83334000Y-189188000D02*
X83334000Y-190712000D01*
X85366000Y-189188000D02*
X85366000Y-190712000D01*
X83334000Y-189188000D02*
G75*
G02*
X85366000Y-189188000I1016000J0D01*
G01*
X85366000Y-190712000D02*
G75*
G02*
X83334000Y-190712000I-1016000J0D01*
G01*
X578634000Y-105518000D02*
X578634000Y-107042000D01*
X580666000Y-105518000D02*
X580666000Y-107042000D01*
X578634000Y-105518000D02*
G75*
G02*
X580666000Y-105518000I1016000J0D01*
G01*
X580666000Y-107042000D02*
G75*
G02*
X578634000Y-107042000I-1016000J0D01*
G01*
X469096500Y-151088000D02*
X469096500Y-152612000D01*
X471128500Y-151088000D02*
X471128500Y-152612000D01*
X469096500Y-151088000D02*
G75*
G02*
X471128500Y-151088000I1016000J0D01*
G01*
X471128500Y-152612000D02*
G75*
G02*
X469096500Y-152612000I-1016000J0D01*
G01*
X407184000Y-84178000D02*
X407184000Y-85702000D01*
X409216000Y-84178000D02*
X409216000Y-85702000D01*
X407184000Y-84178000D02*
G75*
G02*
X409216000Y-84178000I1016000J0D01*
G01*
X409216000Y-85702000D02*
G75*
G02*
X407184000Y-85702000I-1016000J0D01*
G01*
X273834000Y-132038000D02*
X273834000Y-133562000D01*
X275866000Y-132038000D02*
X275866000Y-133562000D01*
X273834000Y-132038000D02*
G75*
G02*
X275866000Y-132038000I1016000J0D01*
G01*
X275866000Y-133562000D02*
G75*
G02*
X273834000Y-133562000I-1016000J0D01*
G01*
X302409000Y-151088000D02*
X302409000Y-152612000D01*
X304441000Y-151088000D02*
X304441000Y-152612000D01*
X302409000Y-151088000D02*
G75*
G02*
X304441000Y-151088000I1016000J0D01*
G01*
X304441000Y-152612000D02*
G75*
G02*
X302409000Y-152612000I-1016000J0D01*
G01*
X83334000Y-105518000D02*
X83334000Y-107042000D01*
X85366000Y-105518000D02*
X85366000Y-107042000D01*
X83334000Y-105518000D02*
G75*
G02*
X85366000Y-105518000I1016000J0D01*
G01*
X85366000Y-107042000D02*
G75*
G02*
X83334000Y-107042000I-1016000J0D01*
G01*
X102384000Y-208238000D02*
X102384000Y-209762000D01*
X104416000Y-208238000D02*
X104416000Y-209762000D01*
X102384000Y-208238000D02*
G75*
G02*
X104416000Y-208238000I1016000J0D01*
G01*
X104416000Y-209762000D02*
G75*
G02*
X102384000Y-209762000I-1016000J0D01*
G01*
X411946500Y-208238000D02*
X411946500Y-209762000D01*
X413978500Y-208238000D02*
X413978500Y-209762000D01*
X411946500Y-208238000D02*
G75*
G02*
X413978500Y-208238000I1016000J0D01*
G01*
X413978500Y-209762000D02*
G75*
G02*
X411946500Y-209762000I-1016000J0D01*
G01*
X388134000Y-208238000D02*
X388134000Y-209762000D01*
X390166000Y-208238000D02*
X390166000Y-209762000D01*
X388134000Y-208238000D02*
G75*
G02*
X390166000Y-208238000I1016000J0D01*
G01*
X390166000Y-209762000D02*
G75*
G02*
X388134000Y-209762000I-1016000J0D01*
G01*
X102384000Y-189188000D02*
X102384000Y-190712000D01*
X104416000Y-189188000D02*
X104416000Y-190712000D01*
X102384000Y-189188000D02*
G75*
G02*
X104416000Y-189188000I1016000J0D01*
G01*
X104416000Y-190712000D02*
G75*
G02*
X102384000Y-190712000I-1016000J0D01*
G01*
X140484000Y-62838000D02*
X140484000Y-64362000D01*
X142516000Y-62838000D02*
X142516000Y-64362000D01*
X140484000Y-62838000D02*
G75*
G02*
X142516000Y-62838000I1016000J0D01*
G01*
X142516000Y-64362000D02*
G75*
G02*
X140484000Y-64362000I-1016000J0D01*
G01*
X492909000Y-208238000D02*
X492909000Y-209762000D01*
X494941000Y-208238000D02*
X494941000Y-209762000D01*
X492909000Y-208238000D02*
G75*
G02*
X494941000Y-208238000I1016000J0D01*
G01*
X494941000Y-209762000D02*
G75*
G02*
X492909000Y-209762000I-1016000J0D01*
G01*
X150009000Y-208238000D02*
X150009000Y-209762000D01*
X152041000Y-208238000D02*
X152041000Y-209762000D01*
X150009000Y-208238000D02*
G75*
G02*
X152041000Y-208238000I1016000J0D01*
G01*
X152041000Y-209762000D02*
G75*
G02*
X150009000Y-209762000I-1016000J0D01*
G01*
X421471500Y-189188000D02*
X421471500Y-190712000D01*
X423503500Y-189188000D02*
X423503500Y-190712000D01*
X421471500Y-189188000D02*
G75*
G02*
X423503500Y-189188000I1016000J0D01*
G01*
X423503500Y-190712000D02*
G75*
G02*
X421471500Y-190712000I-1016000J0D01*
G01*
X216684000Y-132038000D02*
X216684000Y-133562000D01*
X218716000Y-132038000D02*
X218716000Y-133562000D01*
X216684000Y-132038000D02*
G75*
G02*
X218716000Y-132038000I1016000J0D01*
G01*
X218716000Y-133562000D02*
G75*
G02*
X216684000Y-133562000I-1016000J0D01*
G01*
X130959000Y-189188000D02*
X130959000Y-190712000D01*
X132991000Y-189188000D02*
X132991000Y-190712000D01*
X130959000Y-189188000D02*
G75*
G02*
X132991000Y-189188000I1016000J0D01*
G01*
X132991000Y-190712000D02*
G75*
G02*
X130959000Y-190712000I-1016000J0D01*
G01*
X359559000Y-151088000D02*
X359559000Y-152612000D01*
X361591000Y-151088000D02*
X361591000Y-152612000D01*
X359559000Y-151088000D02*
G75*
G02*
X361591000Y-151088000I1016000J0D01*
G01*
X361591000Y-152612000D02*
G75*
G02*
X359559000Y-152612000I-1016000J0D01*
G01*
X183346500Y-151088000D02*
X183346500Y-152612000D01*
X185378500Y-151088000D02*
X185378500Y-152612000D01*
X183346500Y-151088000D02*
G75*
G02*
X185378500Y-151088000I1016000J0D01*
G01*
X185378500Y-152612000D02*
G75*
G02*
X183346500Y-152612000I-1016000J0D01*
G01*
X64284000Y-132038000D02*
X64284000Y-133562000D01*
X66316000Y-132038000D02*
X66316000Y-133562000D01*
X64284000Y-132038000D02*
G75*
G02*
X66316000Y-132038000I1016000J0D01*
G01*
X66316000Y-133562000D02*
G75*
G02*
X64284000Y-133562000I-1016000J0D01*
G01*
X264309000Y-105518000D02*
X264309000Y-107042000D01*
X266341000Y-105518000D02*
X266341000Y-107042000D01*
X264309000Y-105518000D02*
G75*
G02*
X266341000Y-105518000I1016000J0D01*
G01*
X266341000Y-107042000D02*
G75*
G02*
X264309000Y-107042000I-1016000J0D01*
G01*
X264309000Y-189188000D02*
X264309000Y-190712000D01*
X266341000Y-189188000D02*
X266341000Y-190712000D01*
X264309000Y-189188000D02*
G75*
G02*
X266341000Y-189188000I1016000J0D01*
G01*
X266341000Y-190712000D02*
G75*
G02*
X264309000Y-190712000I-1016000J0D01*
G01*
X378609000Y-189188000D02*
X378609000Y-190712000D01*
X380641000Y-189188000D02*
X380641000Y-190712000D01*
X378609000Y-189188000D02*
G75*
G02*
X380641000Y-189188000I1016000J0D01*
G01*
X380641000Y-190712000D02*
G75*
G02*
X378609000Y-190712000I-1016000J0D01*
G01*
X483384000Y-105518000D02*
X483384000Y-107042000D01*
X485416000Y-105518000D02*
X485416000Y-107042000D01*
X483384000Y-105518000D02*
G75*
G02*
X485416000Y-105518000I1016000J0D01*
G01*
X485416000Y-107042000D02*
G75*
G02*
X483384000Y-107042000I-1016000J0D01*
G01*
X173821500Y-189188000D02*
X173821500Y-190712000D01*
X175853500Y-189188000D02*
X175853500Y-190712000D01*
X173821500Y-189188000D02*
G75*
G02*
X175853500Y-189188000I1016000J0D01*
G01*
X175853500Y-190712000D02*
G75*
G02*
X173821500Y-190712000I-1016000J0D01*
G01*
X330984000Y-62838000D02*
X330984000Y-64362000D01*
X333016000Y-62838000D02*
X333016000Y-64362000D01*
X330984000Y-62838000D02*
G75*
G02*
X333016000Y-62838000I1016000J0D01*
G01*
X333016000Y-64362000D02*
G75*
G02*
X330984000Y-64362000I-1016000J0D01*
G01*
X178584000Y-62838000D02*
X178584000Y-64362000D01*
X180616000Y-62838000D02*
X180616000Y-64362000D01*
X178584000Y-62838000D02*
G75*
G02*
X180616000Y-62838000I1016000J0D01*
G01*
X180616000Y-64362000D02*
G75*
G02*
X178584000Y-64362000I-1016000J0D01*
G01*
X254784000Y-170138000D02*
X254784000Y-171662000D01*
X256816000Y-170138000D02*
X256816000Y-171662000D01*
X254784000Y-170138000D02*
G75*
G02*
X256816000Y-170138000I1016000J0D01*
G01*
X256816000Y-171662000D02*
G75*
G02*
X254784000Y-171662000I-1016000J0D01*
G01*
X288121500Y-208238000D02*
X288121500Y-209762000D01*
X290153500Y-208238000D02*
X290153500Y-209762000D01*
X288121500Y-208238000D02*
G75*
G02*
X290153500Y-208238000I1016000J0D01*
G01*
X290153500Y-209762000D02*
G75*
G02*
X288121500Y-209762000I-1016000J0D01*
G01*
X369084000Y-170138000D02*
X369084000Y-171662000D01*
X371116000Y-170138000D02*
X371116000Y-171662000D01*
X369084000Y-170138000D02*
G75*
G02*
X371116000Y-170138000I1016000J0D01*
G01*
X371116000Y-171662000D02*
G75*
G02*
X369084000Y-171662000I-1016000J0D01*
G01*
X321459000Y-151088000D02*
X321459000Y-152612000D01*
X323491000Y-151088000D02*
X323491000Y-152612000D01*
X321459000Y-151088000D02*
G75*
G02*
X323491000Y-151088000I1016000J0D01*
G01*
X323491000Y-152612000D02*
G75*
G02*
X321459000Y-152612000I-1016000J0D01*
G01*
X102384000Y-132038000D02*
X102384000Y-133562000D01*
X104416000Y-132038000D02*
X104416000Y-133562000D01*
X102384000Y-132038000D02*
G75*
G02*
X104416000Y-132038000I1016000J0D01*
G01*
X104416000Y-133562000D02*
G75*
G02*
X102384000Y-133562000I-1016000J0D01*
G01*
X540534000Y-105518000D02*
X540534000Y-107042000D01*
X542566000Y-105518000D02*
X542566000Y-107042000D01*
X540534000Y-105518000D02*
G75*
G02*
X542566000Y-105518000I1016000J0D01*
G01*
X542566000Y-107042000D02*
G75*
G02*
X540534000Y-107042000I-1016000J0D01*
G01*
X292884000Y-170138000D02*
X292884000Y-171662000D01*
X294916000Y-170138000D02*
X294916000Y-171662000D01*
X292884000Y-170138000D02*
G75*
G02*
X294916000Y-170138000I1016000J0D01*
G01*
X294916000Y-171662000D02*
G75*
G02*
X292884000Y-171662000I-1016000J0D01*
G01*
X64284000Y-208238000D02*
X64284000Y-209762000D01*
X66316000Y-208238000D02*
X66316000Y-209762000D01*
X64284000Y-208238000D02*
G75*
G02*
X66316000Y-208238000I1016000J0D01*
G01*
X66316000Y-209762000D02*
G75*
G02*
X64284000Y-209762000I-1016000J0D01*
G01*
X45234000Y-170138000D02*
X45234000Y-171662000D01*
X47266000Y-170138000D02*
X47266000Y-171662000D01*
X45234000Y-170138000D02*
G75*
G02*
X47266000Y-170138000I1016000J0D01*
G01*
X47266000Y-171662000D02*
G75*
G02*
X45234000Y-171662000I-1016000J0D01*
G01*
X178584000Y-132038000D02*
X178584000Y-133562000D01*
X180616000Y-132038000D02*
X180616000Y-133562000D01*
X178584000Y-132038000D02*
G75*
G02*
X180616000Y-132038000I1016000J0D01*
G01*
X180616000Y-133562000D02*
G75*
G02*
X178584000Y-133562000I-1016000J0D01*
G01*
X226209000Y-189188000D02*
X226209000Y-190712000D01*
X228241000Y-189188000D02*
X228241000Y-190712000D01*
X226209000Y-189188000D02*
G75*
G02*
X228241000Y-189188000I1016000J0D01*
G01*
X228241000Y-190712000D02*
G75*
G02*
X226209000Y-190712000I-1016000J0D01*
G01*
X521484000Y-132038000D02*
X521484000Y-133562000D01*
X523516000Y-132038000D02*
X523516000Y-133562000D01*
X521484000Y-132038000D02*
G75*
G02*
X523516000Y-132038000I1016000J0D01*
G01*
X523516000Y-133562000D02*
G75*
G02*
X521484000Y-133562000I-1016000J0D01*
G01*
X330984000Y-170138000D02*
X330984000Y-171662000D01*
X333016000Y-170138000D02*
X333016000Y-171662000D01*
X330984000Y-170138000D02*
G75*
G02*
X333016000Y-170138000I1016000J0D01*
G01*
X333016000Y-171662000D02*
G75*
G02*
X330984000Y-171662000I-1016000J0D01*
G01*
X350034000Y-170138000D02*
X350034000Y-171662000D01*
X352066000Y-170138000D02*
X352066000Y-171662000D01*
X350034000Y-170138000D02*
G75*
G02*
X352066000Y-170138000I1016000J0D01*
G01*
X352066000Y-171662000D02*
G75*
G02*
X350034000Y-171662000I-1016000J0D01*
G01*
X521484000Y-189188000D02*
X521484000Y-190712000D01*
X523516000Y-189188000D02*
X523516000Y-190712000D01*
X521484000Y-189188000D02*
G75*
G02*
X523516000Y-189188000I1016000J0D01*
G01*
X523516000Y-190712000D02*
G75*
G02*
X521484000Y-190712000I-1016000J0D01*
G01*
X83334000Y-151088000D02*
X83334000Y-152612000D01*
X85366000Y-151088000D02*
X85366000Y-152612000D01*
X83334000Y-151088000D02*
G75*
G02*
X85366000Y-151088000I1016000J0D01*
G01*
X85366000Y-152612000D02*
G75*
G02*
X83334000Y-152612000I-1016000J0D01*
G01*
X92859000Y-62838000D02*
X92859000Y-64362000D01*
X94891000Y-62838000D02*
X94891000Y-64362000D01*
X92859000Y-62838000D02*
G75*
G02*
X94891000Y-62838000I1016000J0D01*
G01*
X94891000Y-64362000D02*
G75*
G02*
X92859000Y-64362000I-1016000J0D01*
G01*
X340509000Y-189188000D02*
X340509000Y-190712000D01*
X342541000Y-189188000D02*
X342541000Y-190712000D01*
X340509000Y-189188000D02*
G75*
G02*
X342541000Y-189188000I1016000J0D01*
G01*
X342541000Y-190712000D02*
G75*
G02*
X340509000Y-190712000I-1016000J0D01*
G01*
X426234000Y-132038000D02*
X426234000Y-133562000D01*
X428266000Y-132038000D02*
X428266000Y-133562000D01*
X426234000Y-132038000D02*
G75*
G02*
X428266000Y-132038000I1016000J0D01*
G01*
X428266000Y-133562000D02*
G75*
G02*
X426234000Y-133562000I-1016000J0D01*
G01*
X369084000Y-84178000D02*
X369084000Y-85702000D01*
X371116000Y-84178000D02*
X371116000Y-85702000D01*
X369084000Y-84178000D02*
G75*
G02*
X371116000Y-84178000I1016000J0D01*
G01*
X371116000Y-85702000D02*
G75*
G02*
X369084000Y-85702000I-1016000J0D01*
G01*
X559584000Y-132038000D02*
X559584000Y-133562000D01*
X561616000Y-132038000D02*
X561616000Y-133562000D01*
X559584000Y-132038000D02*
G75*
G02*
X561616000Y-132038000I1016000J0D01*
G01*
X561616000Y-133562000D02*
G75*
G02*
X559584000Y-133562000I-1016000J0D01*
G01*
X569109000Y-62838000D02*
X569109000Y-64362000D01*
X571141000Y-62838000D02*
X571141000Y-64362000D01*
X569109000Y-62838000D02*
G75*
G02*
X571141000Y-62838000I1016000J0D01*
G01*
X571141000Y-64362000D02*
G75*
G02*
X569109000Y-64362000I-1016000J0D01*
G01*
X531009000Y-62838000D02*
X531009000Y-64362000D01*
X533041000Y-62838000D02*
X533041000Y-64362000D01*
X531009000Y-62838000D02*
G75*
G02*
X533041000Y-62838000I1016000J0D01*
G01*
X533041000Y-64362000D02*
G75*
G02*
X531009000Y-64362000I-1016000J0D01*
G01*
X235734000Y-170138000D02*
X235734000Y-171662000D01*
X237766000Y-170138000D02*
X237766000Y-171662000D01*
X235734000Y-170138000D02*
G75*
G02*
X237766000Y-170138000I1016000J0D01*
G01*
X237766000Y-171662000D02*
G75*
G02*
X235734000Y-171662000I-1016000J0D01*
G01*
X559584000Y-189188000D02*
X559584000Y-190712000D01*
X561616000Y-189188000D02*
X561616000Y-190712000D01*
X559584000Y-189188000D02*
G75*
G02*
X561616000Y-189188000I1016000J0D01*
G01*
X561616000Y-190712000D02*
G75*
G02*
X559584000Y-190712000I-1016000J0D01*
G01*
X521484000Y-105518000D02*
X521484000Y-107042000D01*
X523516000Y-105518000D02*
X523516000Y-107042000D01*
X521484000Y-105518000D02*
G75*
G02*
X523516000Y-105518000I1016000J0D01*
G01*
X523516000Y-107042000D02*
G75*
G02*
X521484000Y-107042000I-1016000J0D01*
G01*
X435759000Y-208238000D02*
X435759000Y-209762000D01*
X437791000Y-208238000D02*
X437791000Y-209762000D01*
X435759000Y-208238000D02*
G75*
G02*
X437791000Y-208238000I1016000J0D01*
G01*
X437791000Y-209762000D02*
G75*
G02*
X435759000Y-209762000I-1016000J0D01*
G01*
X169059000Y-208238000D02*
X169059000Y-209762000D01*
X171091000Y-208238000D02*
X171091000Y-209762000D01*
X169059000Y-208238000D02*
G75*
G02*
X171091000Y-208238000I1016000J0D01*
G01*
X171091000Y-209762000D02*
G75*
G02*
X169059000Y-209762000I-1016000J0D01*
G01*
X540534000Y-132038000D02*
X540534000Y-133562000D01*
X542566000Y-132038000D02*
X542566000Y-133562000D01*
X540534000Y-132038000D02*
G75*
G02*
X542566000Y-132038000I1016000J0D01*
G01*
X542566000Y-133562000D02*
G75*
G02*
X540534000Y-133562000I-1016000J0D01*
G01*
X159534000Y-132038000D02*
X159534000Y-133562000D01*
X161566000Y-132038000D02*
X161566000Y-133562000D01*
X159534000Y-132038000D02*
G75*
G02*
X161566000Y-132038000I1016000J0D01*
G01*
X161566000Y-133562000D02*
G75*
G02*
X159534000Y-133562000I-1016000J0D01*
G01*
X578634000Y-151088000D02*
X578634000Y-152612000D01*
X580666000Y-151088000D02*
X580666000Y-152612000D01*
X578634000Y-151088000D02*
G75*
G02*
X580666000Y-151088000I1016000J0D01*
G01*
X580666000Y-152612000D02*
G75*
G02*
X578634000Y-152612000I-1016000J0D01*
G01*
X311934000Y-132038000D02*
X311934000Y-133562000D01*
X313966000Y-132038000D02*
X313966000Y-133562000D01*
X311934000Y-132038000D02*
G75*
G02*
X313966000Y-132038000I1016000J0D01*
G01*
X313966000Y-133562000D02*
G75*
G02*
X311934000Y-133562000I-1016000J0D01*
G01*
X378609000Y-151088000D02*
X378609000Y-152612000D01*
X380641000Y-151088000D02*
X380641000Y-152612000D01*
X378609000Y-151088000D02*
G75*
G02*
X380641000Y-151088000I1016000J0D01*
G01*
X380641000Y-152612000D02*
G75*
G02*
X378609000Y-152612000I-1016000J0D01*
G01*
X54759000Y-62838000D02*
X54759000Y-64362000D01*
X56791000Y-62838000D02*
X56791000Y-64362000D01*
X54759000Y-62838000D02*
G75*
G02*
X56791000Y-62838000I1016000J0D01*
G01*
X56791000Y-64362000D02*
G75*
G02*
X54759000Y-64362000I-1016000J0D01*
G01*
X140484000Y-84178000D02*
X140484000Y-85702000D01*
X142516000Y-84178000D02*
X142516000Y-85702000D01*
X140484000Y-84178000D02*
G75*
G02*
X142516000Y-84178000I1016000J0D01*
G01*
X142516000Y-85702000D02*
G75*
G02*
X140484000Y-85702000I-1016000J0D01*
G01*
X488146500Y-132038000D02*
X488146500Y-133562000D01*
X490178500Y-132038000D02*
X490178500Y-133562000D01*
X488146500Y-132038000D02*
G75*
G02*
X490178500Y-132038000I1016000J0D01*
G01*
X490178500Y-133562000D02*
G75*
G02*
X488146500Y-133562000I-1016000J0D01*
G01*
X135721500Y-170138000D02*
X135721500Y-171662000D01*
X137753500Y-170138000D02*
X137753500Y-171662000D01*
X135721500Y-170138000D02*
G75*
G02*
X137753500Y-170138000I1016000J0D01*
G01*
X137753500Y-171662000D02*
G75*
G02*
X135721500Y-171662000I-1016000J0D01*
G01*
X388134000Y-170138000D02*
X388134000Y-171662000D01*
X390166000Y-170138000D02*
X390166000Y-171662000D01*
X388134000Y-170138000D02*
G75*
G02*
X390166000Y-170138000I1016000J0D01*
G01*
X390166000Y-171662000D02*
G75*
G02*
X388134000Y-171662000I-1016000J0D01*
G01*
X540534000Y-170138000D02*
X540534000Y-171662000D01*
X542566000Y-170138000D02*
X542566000Y-171662000D01*
X540534000Y-170138000D02*
G75*
G02*
X542566000Y-170138000I1016000J0D01*
G01*
X542566000Y-171662000D02*
G75*
G02*
X540534000Y-171662000I-1016000J0D01*
G01*
X178584000Y-84178000D02*
X178584000Y-85702000D01*
X180616000Y-84178000D02*
X180616000Y-85702000D01*
X178584000Y-84178000D02*
G75*
G02*
X180616000Y-84178000I1016000J0D01*
G01*
X180616000Y-85702000D02*
G75*
G02*
X178584000Y-85702000I-1016000J0D01*
G01*
X245259000Y-189188000D02*
X245259000Y-190712000D01*
X247291000Y-189188000D02*
X247291000Y-190712000D01*
X245259000Y-189188000D02*
G75*
G02*
X247291000Y-189188000I1016000J0D01*
G01*
X247291000Y-190712000D02*
G75*
G02*
X245259000Y-190712000I-1016000J0D01*
G01*
X102384000Y-151088000D02*
X102384000Y-152612000D01*
X104416000Y-151088000D02*
X104416000Y-152612000D01*
X102384000Y-151088000D02*
G75*
G02*
X104416000Y-151088000I1016000J0D01*
G01*
X104416000Y-152612000D02*
G75*
G02*
X102384000Y-152612000I-1016000J0D01*
G01*
X369084000Y-62838000D02*
X369084000Y-64362000D01*
X371116000Y-62838000D02*
X371116000Y-64362000D01*
X369084000Y-62838000D02*
G75*
G02*
X371116000Y-62838000I1016000J0D01*
G01*
X371116000Y-64362000D02*
G75*
G02*
X369084000Y-64362000I-1016000J0D01*
G01*
X64284000Y-170138000D02*
X64284000Y-171662000D01*
X66316000Y-170138000D02*
X66316000Y-171662000D01*
X64284000Y-170138000D02*
G75*
G02*
X66316000Y-170138000I1016000J0D01*
G01*
X66316000Y-171662000D02*
G75*
G02*
X64284000Y-171662000I-1016000J0D01*
G01*
X259546500Y-208238000D02*
X259546500Y-209762000D01*
X261578500Y-208238000D02*
X261578500Y-209762000D01*
X259546500Y-208238000D02*
G75*
G02*
X261578500Y-208238000I1016000J0D01*
G01*
X261578500Y-209762000D02*
G75*
G02*
X259546500Y-209762000I-1016000J0D01*
G01*
X407184000Y-132038000D02*
X407184000Y-133562000D01*
X409216000Y-132038000D02*
X409216000Y-133562000D01*
X407184000Y-132038000D02*
G75*
G02*
X409216000Y-132038000I1016000J0D01*
G01*
X409216000Y-133562000D02*
G75*
G02*
X407184000Y-133562000I-1016000J0D01*
G01*
X235734000Y-132038000D02*
X235734000Y-133562000D01*
X237766000Y-132038000D02*
X237766000Y-133562000D01*
X235734000Y-132038000D02*
G75*
G02*
X237766000Y-132038000I1016000J0D01*
G01*
X237766000Y-133562000D02*
G75*
G02*
X235734000Y-133562000I-1016000J0D01*
G01*
X435759000Y-105518000D02*
X435759000Y-107042000D01*
X437791000Y-105518000D02*
X437791000Y-107042000D01*
X435759000Y-105518000D02*
G75*
G02*
X437791000Y-105518000I1016000J0D01*
G01*
X437791000Y-107042000D02*
G75*
G02*
X435759000Y-107042000I-1016000J0D01*
G01*
X330984000Y-84178000D02*
X330984000Y-85702000D01*
X333016000Y-84178000D02*
X333016000Y-85702000D01*
X330984000Y-84178000D02*
G75*
G02*
X333016000Y-84178000I1016000J0D01*
G01*
X333016000Y-85702000D02*
G75*
G02*
X330984000Y-85702000I-1016000J0D01*
G01*
X578634000Y-132038000D02*
X578634000Y-133562000D01*
X580666000Y-132038000D02*
X580666000Y-133562000D01*
X578634000Y-132038000D02*
G75*
G02*
X580666000Y-132038000I1016000J0D01*
G01*
X580666000Y-133562000D02*
G75*
G02*
X578634000Y-133562000I-1016000J0D01*
G01*
X45234000Y-105518000D02*
X45234000Y-107042000D01*
X47266000Y-105518000D02*
X47266000Y-107042000D01*
X45234000Y-105518000D02*
G75*
G02*
X47266000Y-105518000I1016000J0D01*
G01*
X47266000Y-107042000D02*
G75*
G02*
X45234000Y-107042000I-1016000J0D01*
G01*
X464334000Y-132038000D02*
X464334000Y-133562000D01*
X466366000Y-132038000D02*
X466366000Y-133562000D01*
X464334000Y-132038000D02*
G75*
G02*
X466366000Y-132038000I1016000J0D01*
G01*
X466366000Y-133562000D02*
G75*
G02*
X464334000Y-133562000I-1016000J0D01*
G01*
X364321500Y-208238000D02*
X364321500Y-209762000D01*
X366353500Y-208238000D02*
X366353500Y-209762000D01*
X364321500Y-208238000D02*
G75*
G02*
X366353500Y-208238000I1016000J0D01*
G01*
X366353500Y-209762000D02*
G75*
G02*
X364321500Y-209762000I-1016000J0D01*
G01*
X211921500Y-208238000D02*
X211921500Y-209762000D01*
X213953500Y-208238000D02*
X213953500Y-209762000D01*
X211921500Y-208238000D02*
G75*
G02*
X213953500Y-208238000I1016000J0D01*
G01*
X213953500Y-209762000D02*
G75*
G02*
X211921500Y-209762000I-1016000J0D01*
G01*
X254784000Y-62838000D02*
X254784000Y-64362000D01*
X256816000Y-62838000D02*
X256816000Y-64362000D01*
X254784000Y-62838000D02*
G75*
G02*
X256816000Y-62838000I1016000J0D01*
G01*
X256816000Y-64362000D02*
G75*
G02*
X254784000Y-64362000I-1016000J0D01*
G01*
X483384000Y-84178000D02*
X483384000Y-85702000D01*
X485416000Y-84178000D02*
X485416000Y-85702000D01*
X483384000Y-84178000D02*
G75*
G02*
X485416000Y-84178000I1016000J0D01*
G01*
X485416000Y-85702000D02*
G75*
G02*
X483384000Y-85702000I-1016000J0D01*
G01*
X283359000Y-189188000D02*
X283359000Y-190712000D01*
X285391000Y-189188000D02*
X285391000Y-190712000D01*
X283359000Y-189188000D02*
G75*
G02*
X285391000Y-189188000I1016000J0D01*
G01*
X285391000Y-190712000D02*
G75*
G02*
X283359000Y-190712000I-1016000J0D01*
G01*
X492909000Y-189188000D02*
X492909000Y-190712000D01*
X494941000Y-189188000D02*
X494941000Y-190712000D01*
X492909000Y-189188000D02*
G75*
G02*
X494941000Y-189188000I1016000J0D01*
G01*
X494941000Y-190712000D02*
G75*
G02*
X492909000Y-190712000I-1016000J0D01*
G01*
X407184000Y-170138000D02*
X407184000Y-171662000D01*
X409216000Y-170138000D02*
X409216000Y-171662000D01*
X407184000Y-170138000D02*
G75*
G02*
X409216000Y-170138000I1016000J0D01*
G01*
X409216000Y-171662000D02*
G75*
G02*
X407184000Y-171662000I-1016000J0D01*
G01*
X321459000Y-105518000D02*
X321459000Y-107042000D01*
X323491000Y-105518000D02*
X323491000Y-107042000D01*
X321459000Y-105518000D02*
G75*
G02*
X323491000Y-105518000I1016000J0D01*
G01*
X323491000Y-107042000D02*
G75*
G02*
X321459000Y-107042000I-1016000J0D01*
G01*
X45234000Y-208238000D02*
X45234000Y-209762000D01*
X47266000Y-208238000D02*
X47266000Y-209762000D01*
X45234000Y-208238000D02*
G75*
G02*
X47266000Y-208238000I1016000J0D01*
G01*
X47266000Y-209762000D02*
G75*
G02*
X45234000Y-209762000I-1016000J0D01*
G01*
X397659000Y-105518000D02*
X397659000Y-107042000D01*
X399691000Y-105518000D02*
X399691000Y-107042000D01*
X397659000Y-105518000D02*
G75*
G02*
X399691000Y-105518000I1016000J0D01*
G01*
X399691000Y-107042000D02*
G75*
G02*
X397659000Y-107042000I-1016000J0D01*
G01*
X311934000Y-208238000D02*
X311934000Y-209762000D01*
X313966000Y-208238000D02*
X313966000Y-209762000D01*
X311934000Y-208238000D02*
G75*
G02*
X313966000Y-208238000I1016000J0D01*
G01*
X313966000Y-209762000D02*
G75*
G02*
X311934000Y-209762000I-1016000J0D01*
G01*
X340509000Y-105518000D02*
X340509000Y-107042000D01*
X342541000Y-105518000D02*
X342541000Y-107042000D01*
X340509000Y-105518000D02*
G75*
G02*
X342541000Y-105518000I1016000J0D01*
G01*
X342541000Y-107042000D02*
G75*
G02*
X340509000Y-107042000I-1016000J0D01*
G01*
X245259000Y-151088000D02*
X245259000Y-152612000D01*
X247291000Y-151088000D02*
X247291000Y-152612000D01*
X245259000Y-151088000D02*
G75*
G02*
X247291000Y-151088000I1016000J0D01*
G01*
X247291000Y-152612000D02*
G75*
G02*
X245259000Y-152612000I-1016000J0D01*
G01*
X154771500Y-151088000D02*
X154771500Y-152612000D01*
X156803500Y-151088000D02*
X156803500Y-152612000D01*
X154771500Y-151088000D02*
G75*
G02*
X156803500Y-151088000I1016000J0D01*
G01*
X156803500Y-152612000D02*
G75*
G02*
X154771500Y-152612000I-1016000J0D01*
G01*
X226209000Y-105518000D02*
X226209000Y-107042000D01*
X228241000Y-105518000D02*
X228241000Y-107042000D01*
X226209000Y-105518000D02*
G75*
G02*
X228241000Y-105518000I1016000J0D01*
G01*
X228241000Y-107042000D02*
G75*
G02*
X226209000Y-107042000I-1016000J0D01*
G01*
X473859000Y-208238000D02*
X473859000Y-209762000D01*
X475891000Y-208238000D02*
X475891000Y-209762000D01*
X473859000Y-208238000D02*
G75*
G02*
X475891000Y-208238000I1016000J0D01*
G01*
X475891000Y-209762000D02*
G75*
G02*
X473859000Y-209762000I-1016000J0D01*
G01*
X140484000Y-105518000D02*
X140484000Y-107042000D01*
X142516000Y-105518000D02*
X142516000Y-107042000D01*
X140484000Y-105518000D02*
G75*
G02*
X142516000Y-105518000I1016000J0D01*
G01*
X142516000Y-107042000D02*
G75*
G02*
X140484000Y-107042000I-1016000J0D01*
G01*
X226209000Y-151088000D02*
X226209000Y-152612000D01*
X228241000Y-151088000D02*
X228241000Y-152612000D01*
X226209000Y-151088000D02*
G75*
G02*
X228241000Y-151088000I1016000J0D01*
G01*
X228241000Y-152612000D02*
G75*
G02*
X226209000Y-152612000I-1016000J0D01*
G01*
X216684000Y-170138000D02*
X216684000Y-171662000D01*
X218716000Y-170138000D02*
X218716000Y-171662000D01*
X216684000Y-170138000D02*
G75*
G02*
X218716000Y-170138000I1016000J0D01*
G01*
X218716000Y-171662000D02*
G75*
G02*
X216684000Y-171662000I-1016000J0D01*
G01*
X216684000Y-84178000D02*
X216684000Y-85702000D01*
X218716000Y-84178000D02*
X218716000Y-85702000D01*
X216684000Y-84178000D02*
G75*
G02*
X218716000Y-84178000I1016000J0D01*
G01*
X218716000Y-85702000D02*
G75*
G02*
X216684000Y-85702000I-1016000J0D01*
G01*
X521484000Y-151088000D02*
X521484000Y-152612000D01*
X523516000Y-151088000D02*
X523516000Y-152612000D01*
X521484000Y-151088000D02*
G75*
G02*
X523516000Y-151088000I1016000J0D01*
G01*
X523516000Y-152612000D02*
G75*
G02*
X521484000Y-152612000I-1016000J0D01*
G01*
X359559000Y-105518000D02*
X359559000Y-107042000D01*
X361591000Y-105518000D02*
X361591000Y-107042000D01*
X359559000Y-105518000D02*
G75*
G02*
X361591000Y-105518000I1016000J0D01*
G01*
X361591000Y-107042000D02*
G75*
G02*
X359559000Y-107042000I-1016000J0D01*
G01*
X454809000Y-105518000D02*
X454809000Y-107042000D01*
X456841000Y-105518000D02*
X456841000Y-107042000D01*
X454809000Y-105518000D02*
G75*
G02*
X456841000Y-105518000I1016000J0D01*
G01*
X456841000Y-107042000D02*
G75*
G02*
X454809000Y-107042000I-1016000J0D01*
G01*
X54759000Y-84178000D02*
X54759000Y-85702000D01*
X56791000Y-84178000D02*
X56791000Y-85702000D01*
X54759000Y-84178000D02*
G75*
G02*
X56791000Y-84178000I1016000J0D01*
G01*
X56791000Y-85702000D02*
G75*
G02*
X54759000Y-85702000I-1016000J0D01*
G01*
X388134000Y-132038000D02*
X388134000Y-133562000D01*
X390166000Y-132038000D02*
X390166000Y-133562000D01*
X388134000Y-132038000D02*
G75*
G02*
X390166000Y-132038000I1016000J0D01*
G01*
X390166000Y-133562000D02*
G75*
G02*
X388134000Y-133562000I-1016000J0D01*
G01*
X330984000Y-132038000D02*
X330984000Y-133562000D01*
X333016000Y-132038000D02*
X333016000Y-133562000D01*
X330984000Y-132038000D02*
G75*
G02*
X333016000Y-132038000I1016000J0D01*
G01*
X333016000Y-133562000D02*
G75*
G02*
X330984000Y-133562000I-1016000J0D01*
G01*
X559584000Y-151088000D02*
X559584000Y-152612000D01*
X561616000Y-151088000D02*
X561616000Y-152612000D01*
X559584000Y-151088000D02*
G75*
G02*
X561616000Y-151088000I1016000J0D01*
G01*
X561616000Y-152612000D02*
G75*
G02*
X559584000Y-152612000I-1016000J0D01*
G01*
X397659000Y-189188000D02*
X397659000Y-190712000D01*
X399691000Y-189188000D02*
X399691000Y-190712000D01*
X397659000Y-189188000D02*
G75*
G02*
X399691000Y-189188000I1016000J0D01*
G01*
X399691000Y-190712000D02*
G75*
G02*
X397659000Y-190712000I-1016000J0D01*
G01*
X459571500Y-170138000D02*
X459571500Y-171662000D01*
X461603500Y-170138000D02*
X461603500Y-171662000D01*
X459571500Y-170138000D02*
G75*
G02*
X461603500Y-170138000I1016000J0D01*
G01*
X461603500Y-171662000D02*
G75*
G02*
X459571500Y-171662000I-1016000J0D01*
G01*
X540534000Y-189188000D02*
X540534000Y-190712000D01*
X542566000Y-189188000D02*
X542566000Y-190712000D01*
X540534000Y-189188000D02*
G75*
G02*
X542566000Y-189188000I1016000J0D01*
G01*
X542566000Y-190712000D02*
G75*
G02*
X540534000Y-190712000I-1016000J0D01*
G01*
X488146500Y-170138000D02*
X488146500Y-171662000D01*
X490178500Y-170138000D02*
X490178500Y-171662000D01*
X488146500Y-170138000D02*
G75*
G02*
X490178500Y-170138000I1016000J0D01*
G01*
X490178500Y-171662000D02*
G75*
G02*
X488146500Y-171662000I-1016000J0D01*
G01*
X292884000Y-84178000D02*
X292884000Y-85702000D01*
X294916000Y-84178000D02*
X294916000Y-85702000D01*
X292884000Y-84178000D02*
G75*
G02*
X294916000Y-84178000I1016000J0D01*
G01*
X294916000Y-85702000D02*
G75*
G02*
X292884000Y-85702000I-1016000J0D01*
G01*
X45234000Y-151088000D02*
X45234000Y-152612000D01*
X47266000Y-151088000D02*
X47266000Y-152612000D01*
X45234000Y-151088000D02*
G75*
G02*
X47266000Y-151088000I1016000J0D01*
G01*
X47266000Y-152612000D02*
G75*
G02*
X45234000Y-152612000I-1016000J0D01*
G01*
X273834000Y-170138000D02*
X273834000Y-171662000D01*
X275866000Y-170138000D02*
X275866000Y-171662000D01*
X273834000Y-170138000D02*
G75*
G02*
X275866000Y-170138000I1016000J0D01*
G01*
X275866000Y-171662000D02*
G75*
G02*
X273834000Y-171662000I-1016000J0D01*
G01*
X197634000Y-132038000D02*
X197634000Y-133562000D01*
X199666000Y-132038000D02*
X199666000Y-133562000D01*
X197634000Y-132038000D02*
G75*
G02*
X199666000Y-132038000I1016000J0D01*
G01*
X199666000Y-133562000D02*
G75*
G02*
X197634000Y-133562000I-1016000J0D01*
G01*
X397659000Y-151088000D02*
X397659000Y-152612000D01*
X399691000Y-151088000D02*
X399691000Y-152612000D01*
X397659000Y-151088000D02*
G75*
G02*
X399691000Y-151088000I1016000J0D01*
G01*
X399691000Y-152612000D02*
G75*
G02*
X397659000Y-152612000I-1016000J0D01*
G01*
X445284000Y-132038000D02*
X445284000Y-133562000D01*
X447316000Y-132038000D02*
X447316000Y-133562000D01*
X445284000Y-132038000D02*
G75*
G02*
X447316000Y-132038000I1016000J0D01*
G01*
X447316000Y-133562000D02*
G75*
G02*
X445284000Y-133562000I-1016000J0D01*
G01*
X416709000Y-151088000D02*
X416709000Y-152612000D01*
X418741000Y-151088000D02*
X418741000Y-152612000D01*
X416709000Y-151088000D02*
G75*
G02*
X418741000Y-151088000I1016000J0D01*
G01*
X418741000Y-152612000D02*
G75*
G02*
X416709000Y-152612000I-1016000J0D01*
G01*
X283359000Y-105518000D02*
X283359000Y-107042000D01*
X285391000Y-105518000D02*
X285391000Y-107042000D01*
X283359000Y-105518000D02*
G75*
G02*
X285391000Y-105518000I1016000J0D01*
G01*
X285391000Y-107042000D02*
G75*
G02*
X283359000Y-107042000I-1016000J0D01*
G01*
X245259000Y-105518000D02*
X245259000Y-107042000D01*
X247291000Y-105518000D02*
X247291000Y-107042000D01*
X245259000Y-105518000D02*
G75*
G02*
X247291000Y-105518000I1016000J0D01*
G01*
X247291000Y-107042000D02*
G75*
G02*
X245259000Y-107042000I-1016000J0D01*
G01*
X216684000Y-62838000D02*
X216684000Y-64362000D01*
X218716000Y-62838000D02*
X218716000Y-64362000D01*
X216684000Y-62838000D02*
G75*
G02*
X218716000Y-62838000I1016000J0D01*
G01*
X218716000Y-64362000D02*
G75*
G02*
X216684000Y-64362000I-1016000J0D01*
G01*
X335746500Y-208238000D02*
X335746500Y-209762000D01*
X337778500Y-208238000D02*
X337778500Y-209762000D01*
X335746500Y-208238000D02*
G75*
G02*
X337778500Y-208238000I1016000J0D01*
G01*
X337778500Y-209762000D02*
G75*
G02*
X335746500Y-209762000I-1016000J0D01*
G01*
X254784000Y-84178000D02*
X254784000Y-85702000D01*
X256816000Y-84178000D02*
X256816000Y-85702000D01*
X254784000Y-84178000D02*
G75*
G02*
X256816000Y-84178000I1016000J0D01*
G01*
X256816000Y-85702000D02*
G75*
G02*
X254784000Y-85702000I-1016000J0D01*
G01*
X407184000Y-62838000D02*
X407184000Y-64362000D01*
X409216000Y-62838000D02*
X409216000Y-64362000D01*
X407184000Y-62838000D02*
G75*
G02*
X409216000Y-62838000I1016000J0D01*
G01*
X409216000Y-64362000D02*
G75*
G02*
X407184000Y-64362000I-1016000J0D01*
G01*
X445284000Y-84178000D02*
X445284000Y-85702000D01*
X447316000Y-84178000D02*
X447316000Y-85702000D01*
X445284000Y-84178000D02*
G75*
G02*
X447316000Y-84178000I1016000J0D01*
G01*
X447316000Y-85702000D02*
G75*
G02*
X445284000Y-85702000I-1016000J0D01*
G01*
X578634000Y-208238000D02*
X578634000Y-209762000D01*
X580666000Y-208238000D02*
X580666000Y-209762000D01*
X578634000Y-208238000D02*
G75*
G02*
X580666000Y-208238000I1016000J0D01*
G01*
X580666000Y-209762000D02*
G75*
G02*
X578634000Y-209762000I-1016000J0D01*
G01*
X283359000Y-151088000D02*
X283359000Y-152612000D01*
X285391000Y-151088000D02*
X285391000Y-152612000D01*
X283359000Y-151088000D02*
G75*
G02*
X285391000Y-151088000I1016000J0D01*
G01*
X285391000Y-152612000D02*
G75*
G02*
X283359000Y-152612000I-1016000J0D01*
G01*
X169059000Y-105518000D02*
X169059000Y-107042000D01*
X171091000Y-105518000D02*
X171091000Y-107042000D01*
X169059000Y-105518000D02*
G75*
G02*
X171091000Y-105518000I1016000J0D01*
G01*
X171091000Y-107042000D02*
G75*
G02*
X169059000Y-107042000I-1016000J0D01*
G01*
X150009000Y-189188000D02*
X150009000Y-190712000D01*
X152041000Y-189188000D02*
X152041000Y-190712000D01*
X150009000Y-189188000D02*
G75*
G02*
X152041000Y-189188000I1016000J0D01*
G01*
X152041000Y-190712000D02*
G75*
G02*
X150009000Y-190712000I-1016000J0D01*
G01*
X321459000Y-189188000D02*
X321459000Y-190712000D01*
X323491000Y-189188000D02*
X323491000Y-190712000D01*
X321459000Y-189188000D02*
G75*
G02*
X323491000Y-189188000I1016000J0D01*
G01*
X323491000Y-190712000D02*
G75*
G02*
X321459000Y-190712000I-1016000J0D01*
G01*
X559584000Y-105518000D02*
X559584000Y-107042000D01*
X561616000Y-105518000D02*
X561616000Y-107042000D01*
X559584000Y-105518000D02*
G75*
G02*
X561616000Y-105518000I1016000J0D01*
G01*
X561616000Y-107042000D02*
G75*
G02*
X559584000Y-107042000I-1016000J0D01*
G01*
X45234000Y-189188000D02*
X45234000Y-190712000D01*
X47266000Y-189188000D02*
X47266000Y-190712000D01*
X45234000Y-189188000D02*
G75*
G02*
X47266000Y-189188000I1016000J0D01*
G01*
X47266000Y-190712000D02*
G75*
G02*
X45234000Y-190712000I-1016000J0D01*
G01*
X450046500Y-189188000D02*
X450046500Y-190712000D01*
X452078500Y-189188000D02*
X452078500Y-190712000D01*
X450046500Y-189188000D02*
G75*
G02*
X452078500Y-189188000I1016000J0D01*
G01*
X452078500Y-190712000D02*
G75*
G02*
X450046500Y-190712000I-1016000J0D01*
G01*
X64284000Y-105518000D02*
X64284000Y-107042000D01*
X66316000Y-105518000D02*
X66316000Y-107042000D01*
X64284000Y-105518000D02*
G75*
G02*
X66316000Y-105518000I1016000J0D01*
G01*
X66316000Y-107042000D02*
G75*
G02*
X64284000Y-107042000I-1016000J0D01*
G01*
X492909000Y-151088000D02*
X492909000Y-152612000D01*
X494941000Y-151088000D02*
X494941000Y-152612000D01*
X492909000Y-151088000D02*
G75*
G02*
X494941000Y-151088000I1016000J0D01*
G01*
X494941000Y-152612000D02*
G75*
G02*
X492909000Y-152612000I-1016000J0D01*
G01*
X302409000Y-105518000D02*
X302409000Y-107042000D01*
X304441000Y-105518000D02*
X304441000Y-107042000D01*
X302409000Y-105518000D02*
G75*
G02*
X304441000Y-105518000I1016000J0D01*
G01*
X304441000Y-107042000D02*
G75*
G02*
X302409000Y-107042000I-1016000J0D01*
G01*
X483384000Y-62838000D02*
X483384000Y-64362000D01*
X485416000Y-62838000D02*
X485416000Y-64362000D01*
X483384000Y-62838000D02*
G75*
G02*
X485416000Y-62838000I1016000J0D01*
G01*
X485416000Y-64362000D02*
G75*
G02*
X483384000Y-64362000I-1016000J0D01*
G01*
X430996500Y-170138000D02*
X430996500Y-171662000D01*
X433028500Y-170138000D02*
X433028500Y-171662000D01*
X430996500Y-170138000D02*
G75*
G02*
X433028500Y-170138000I1016000J0D01*
G01*
X433028500Y-171662000D02*
G75*
G02*
X430996500Y-171662000I-1016000J0D01*
G01*
X302409000Y-189188000D02*
X302409000Y-190712000D01*
X304441000Y-189188000D02*
X304441000Y-190712000D01*
X302409000Y-189188000D02*
G75*
G02*
X304441000Y-189188000I1016000J0D01*
G01*
X304441000Y-190712000D02*
G75*
G02*
X302409000Y-190712000I-1016000J0D01*
G01*
X64284000Y-151088000D02*
X64284000Y-152612000D01*
X66316000Y-151088000D02*
X66316000Y-152612000D01*
X64284000Y-151088000D02*
G75*
G02*
X66316000Y-151088000I1016000J0D01*
G01*
X66316000Y-152612000D02*
G75*
G02*
X64284000Y-152612000I-1016000J0D01*
G01*
X559584000Y-170138000D02*
X559584000Y-171662000D01*
X561616000Y-170138000D02*
X561616000Y-171662000D01*
X559584000Y-170138000D02*
G75*
G02*
X561616000Y-170138000I1016000J0D01*
G01*
X561616000Y-171662000D02*
G75*
G02*
X559584000Y-171662000I-1016000J0D01*
G01*
X378609000Y-105518000D02*
X378609000Y-107042000D01*
X380641000Y-105518000D02*
X380641000Y-107042000D01*
X378609000Y-105518000D02*
G75*
G02*
X380641000Y-105518000I1016000J0D01*
G01*
X380641000Y-107042000D02*
G75*
G02*
X378609000Y-107042000I-1016000J0D01*
G01*
X416709000Y-105518000D02*
X416709000Y-107042000D01*
X418741000Y-105518000D02*
X418741000Y-107042000D01*
X416709000Y-105518000D02*
G75*
G02*
X418741000Y-105518000I1016000J0D01*
G01*
X418741000Y-107042000D02*
G75*
G02*
X416709000Y-107042000I-1016000J0D01*
G01*
X164296500Y-170138000D02*
X164296500Y-171662000D01*
X166328500Y-170138000D02*
X166328500Y-171662000D01*
X164296500Y-170138000D02*
G75*
G02*
X166328500Y-170138000I1016000J0D01*
G01*
X166328500Y-171662000D02*
G75*
G02*
X164296500Y-171662000I-1016000J0D01*
G01*
X92859000Y-84178000D02*
X92859000Y-85702000D01*
X94891000Y-84178000D02*
X94891000Y-85702000D01*
X92859000Y-84178000D02*
G75*
G02*
X94891000Y-84178000I1016000J0D01*
G01*
X94891000Y-85702000D02*
G75*
G02*
X92859000Y-85702000I-1016000J0D01*
G01*
X540534000Y-208238000D02*
X540534000Y-209762000D01*
X542566000Y-208238000D02*
X542566000Y-209762000D01*
X540534000Y-208238000D02*
G75*
G02*
X542566000Y-208238000I1016000J0D01*
G01*
X542566000Y-209762000D02*
G75*
G02*
X540534000Y-209762000I-1016000J0D01*
G01*
X521484000Y-170138000D02*
X521484000Y-171662000D01*
X523516000Y-170138000D02*
X523516000Y-171662000D01*
X521484000Y-170138000D02*
G75*
G02*
X523516000Y-170138000I1016000J0D01*
G01*
X523516000Y-171662000D02*
G75*
G02*
X521484000Y-171662000I-1016000J0D01*
G01*
X369084000Y-132038000D02*
X369084000Y-133562000D01*
X371116000Y-132038000D02*
X371116000Y-133562000D01*
X369084000Y-132038000D02*
G75*
G02*
X371116000Y-132038000I1016000J0D01*
G01*
X371116000Y-133562000D02*
G75*
G02*
X369084000Y-133562000I-1016000J0D01*
G01*
X454809000Y-208238000D02*
X454809000Y-209762000D01*
X456841000Y-208238000D02*
X456841000Y-209762000D01*
X454809000Y-208238000D02*
G75*
G02*
X456841000Y-208238000I1016000J0D01*
G01*
X456841000Y-209762000D02*
G75*
G02*
X454809000Y-209762000I-1016000J0D01*
G01*
X64284000Y-189188000D02*
X64284000Y-190712000D01*
X66316000Y-189188000D02*
X66316000Y-190712000D01*
X64284000Y-189188000D02*
G75*
G02*
X66316000Y-189188000I1016000J0D01*
G01*
X66316000Y-190712000D02*
G75*
G02*
X64284000Y-190712000I-1016000J0D01*
G01*
X130959000Y-208238000D02*
X130959000Y-209762000D01*
X132991000Y-208238000D02*
X132991000Y-209762000D01*
X130959000Y-208238000D02*
G75*
G02*
X132991000Y-208238000I1016000J0D01*
G01*
X132991000Y-209762000D02*
G75*
G02*
X130959000Y-209762000I-1016000J0D01*
G01*
X359559000Y-189188000D02*
X359559000Y-190712000D01*
X361591000Y-189188000D02*
X361591000Y-190712000D01*
X359559000Y-189188000D02*
G75*
G02*
X361591000Y-189188000I1016000J0D01*
G01*
X361591000Y-190712000D02*
G75*
G02*
X359559000Y-190712000I-1016000J0D01*
G01*
X521484000Y-208238000D02*
X521484000Y-209762000D01*
X523516000Y-208238000D02*
X523516000Y-209762000D01*
X521484000Y-208238000D02*
G75*
G02*
X523516000Y-208238000I1016000J0D01*
G01*
X523516000Y-209762000D02*
G75*
G02*
X521484000Y-209762000I-1016000J0D01*
G01*
X540534000Y-151088000D02*
X540534000Y-152612000D01*
X542566000Y-151088000D02*
X542566000Y-152612000D01*
X540534000Y-151088000D02*
G75*
G02*
X542566000Y-151088000I1016000J0D01*
G01*
X542566000Y-152612000D02*
G75*
G02*
X540534000Y-152612000I-1016000J0D01*
G01*
M02*
