G04 #@! TF.GenerationSoftware,KiCad,Pcbnew,8.0.5-8.0.5-0~ubuntu20.04.1*
G04 #@! TF.CreationDate,2024-11-01T17:59:00+00:00*
G04 #@! TF.ProjectId,Hyper7-Evo,48797065-7237-42d4-9576-6f2e6b696361,rev?*
G04 #@! TF.SameCoordinates,Original*
G04 #@! TF.FileFunction,Legend,Top*
G04 #@! TF.FilePolarity,Positive*
%FSLAX46Y46*%
G04 Gerber Fmt 4.6, Leading zero omitted, Abs format (unit mm)*
G04 Created by KiCad (PCBNEW 8.0.5-8.0.5-0~ubuntu20.04.1) date 2024-11-01 17:59:00*
%MOMM*%
%LPD*%
G01*
G04 APERTURE LIST*
%ADD10C,0.150000*%
%ADD11C,0.120000*%
G04 APERTURE END LIST*
D10*
X229849819Y-120409523D02*
X230564104Y-120409523D01*
X230564104Y-120409523D02*
X230706961Y-120457142D01*
X230706961Y-120457142D02*
X230802200Y-120552380D01*
X230802200Y-120552380D02*
X230849819Y-120695237D01*
X230849819Y-120695237D02*
X230849819Y-120790475D01*
X230849819Y-119409523D02*
X230849819Y-119980951D01*
X230849819Y-119695237D02*
X229849819Y-119695237D01*
X229849819Y-119695237D02*
X229992676Y-119790475D01*
X229992676Y-119790475D02*
X230087914Y-119885713D01*
X230087914Y-119885713D02*
X230135533Y-119980951D01*
X229849819Y-118552380D02*
X229849819Y-118742856D01*
X229849819Y-118742856D02*
X229897438Y-118838094D01*
X229897438Y-118838094D02*
X229945057Y-118885713D01*
X229945057Y-118885713D02*
X230087914Y-118980951D01*
X230087914Y-118980951D02*
X230278390Y-119028570D01*
X230278390Y-119028570D02*
X230659342Y-119028570D01*
X230659342Y-119028570D02*
X230754580Y-118980951D01*
X230754580Y-118980951D02*
X230802200Y-118933332D01*
X230802200Y-118933332D02*
X230849819Y-118838094D01*
X230849819Y-118838094D02*
X230849819Y-118647618D01*
X230849819Y-118647618D02*
X230802200Y-118552380D01*
X230802200Y-118552380D02*
X230754580Y-118504761D01*
X230754580Y-118504761D02*
X230659342Y-118457142D01*
X230659342Y-118457142D02*
X230421247Y-118457142D01*
X230421247Y-118457142D02*
X230326009Y-118504761D01*
X230326009Y-118504761D02*
X230278390Y-118552380D01*
X230278390Y-118552380D02*
X230230771Y-118647618D01*
X230230771Y-118647618D02*
X230230771Y-118838094D01*
X230230771Y-118838094D02*
X230278390Y-118933332D01*
X230278390Y-118933332D02*
X230326009Y-118980951D01*
X230326009Y-118980951D02*
X230421247Y-119028570D01*
X57214819Y-119933333D02*
X57929104Y-119933333D01*
X57929104Y-119933333D02*
X58071961Y-119980952D01*
X58071961Y-119980952D02*
X58167200Y-120076190D01*
X58167200Y-120076190D02*
X58214819Y-120219047D01*
X58214819Y-120219047D02*
X58214819Y-120314285D01*
X57214819Y-119028571D02*
X57214819Y-119219047D01*
X57214819Y-119219047D02*
X57262438Y-119314285D01*
X57262438Y-119314285D02*
X57310057Y-119361904D01*
X57310057Y-119361904D02*
X57452914Y-119457142D01*
X57452914Y-119457142D02*
X57643390Y-119504761D01*
X57643390Y-119504761D02*
X58024342Y-119504761D01*
X58024342Y-119504761D02*
X58119580Y-119457142D01*
X58119580Y-119457142D02*
X58167200Y-119409523D01*
X58167200Y-119409523D02*
X58214819Y-119314285D01*
X58214819Y-119314285D02*
X58214819Y-119123809D01*
X58214819Y-119123809D02*
X58167200Y-119028571D01*
X58167200Y-119028571D02*
X58119580Y-118980952D01*
X58119580Y-118980952D02*
X58024342Y-118933333D01*
X58024342Y-118933333D02*
X57786247Y-118933333D01*
X57786247Y-118933333D02*
X57691009Y-118980952D01*
X57691009Y-118980952D02*
X57643390Y-119028571D01*
X57643390Y-119028571D02*
X57595771Y-119123809D01*
X57595771Y-119123809D02*
X57595771Y-119314285D01*
X57595771Y-119314285D02*
X57643390Y-119409523D01*
X57643390Y-119409523D02*
X57691009Y-119457142D01*
X57691009Y-119457142D02*
X57786247Y-119504761D01*
X229849819Y-110409523D02*
X230564104Y-110409523D01*
X230564104Y-110409523D02*
X230706961Y-110457142D01*
X230706961Y-110457142D02*
X230802200Y-110552380D01*
X230802200Y-110552380D02*
X230849819Y-110695237D01*
X230849819Y-110695237D02*
X230849819Y-110790475D01*
X230849819Y-109409523D02*
X230849819Y-109980951D01*
X230849819Y-109695237D02*
X229849819Y-109695237D01*
X229849819Y-109695237D02*
X229992676Y-109790475D01*
X229992676Y-109790475D02*
X230087914Y-109885713D01*
X230087914Y-109885713D02*
X230135533Y-109980951D01*
X229849819Y-109076189D02*
X229849819Y-108409523D01*
X229849819Y-108409523D02*
X230849819Y-108838094D01*
X168324819Y-120259523D02*
X169039104Y-120259523D01*
X169039104Y-120259523D02*
X169181961Y-120307142D01*
X169181961Y-120307142D02*
X169277200Y-120402380D01*
X169277200Y-120402380D02*
X169324819Y-120545237D01*
X169324819Y-120545237D02*
X169324819Y-120640475D01*
X169324819Y-119259523D02*
X169324819Y-119830951D01*
X169324819Y-119545237D02*
X168324819Y-119545237D01*
X168324819Y-119545237D02*
X168467676Y-119640475D01*
X168467676Y-119640475D02*
X168562914Y-119735713D01*
X168562914Y-119735713D02*
X168610533Y-119830951D01*
X168658152Y-118402380D02*
X169324819Y-118402380D01*
X168277200Y-118640475D02*
X168991485Y-118878570D01*
X168991485Y-118878570D02*
X168991485Y-118259523D01*
X57254819Y-109833333D02*
X57969104Y-109833333D01*
X57969104Y-109833333D02*
X58111961Y-109880952D01*
X58111961Y-109880952D02*
X58207200Y-109976190D01*
X58207200Y-109976190D02*
X58254819Y-110119047D01*
X58254819Y-110119047D02*
X58254819Y-110214285D01*
X57683390Y-109214285D02*
X57635771Y-109309523D01*
X57635771Y-109309523D02*
X57588152Y-109357142D01*
X57588152Y-109357142D02*
X57492914Y-109404761D01*
X57492914Y-109404761D02*
X57445295Y-109404761D01*
X57445295Y-109404761D02*
X57350057Y-109357142D01*
X57350057Y-109357142D02*
X57302438Y-109309523D01*
X57302438Y-109309523D02*
X57254819Y-109214285D01*
X57254819Y-109214285D02*
X57254819Y-109023809D01*
X57254819Y-109023809D02*
X57302438Y-108928571D01*
X57302438Y-108928571D02*
X57350057Y-108880952D01*
X57350057Y-108880952D02*
X57445295Y-108833333D01*
X57445295Y-108833333D02*
X57492914Y-108833333D01*
X57492914Y-108833333D02*
X57588152Y-108880952D01*
X57588152Y-108880952D02*
X57635771Y-108928571D01*
X57635771Y-108928571D02*
X57683390Y-109023809D01*
X57683390Y-109023809D02*
X57683390Y-109214285D01*
X57683390Y-109214285D02*
X57731009Y-109309523D01*
X57731009Y-109309523D02*
X57778628Y-109357142D01*
X57778628Y-109357142D02*
X57873866Y-109404761D01*
X57873866Y-109404761D02*
X58064342Y-109404761D01*
X58064342Y-109404761D02*
X58159580Y-109357142D01*
X58159580Y-109357142D02*
X58207200Y-109309523D01*
X58207200Y-109309523D02*
X58254819Y-109214285D01*
X58254819Y-109214285D02*
X58254819Y-109023809D01*
X58254819Y-109023809D02*
X58207200Y-108928571D01*
X58207200Y-108928571D02*
X58159580Y-108880952D01*
X58159580Y-108880952D02*
X58064342Y-108833333D01*
X58064342Y-108833333D02*
X57873866Y-108833333D01*
X57873866Y-108833333D02*
X57778628Y-108880952D01*
X57778628Y-108880952D02*
X57731009Y-108928571D01*
X57731009Y-108928571D02*
X57683390Y-109023809D01*
X168324819Y-110409523D02*
X169039104Y-110409523D01*
X169039104Y-110409523D02*
X169181961Y-110457142D01*
X169181961Y-110457142D02*
X169277200Y-110552380D01*
X169277200Y-110552380D02*
X169324819Y-110695237D01*
X169324819Y-110695237D02*
X169324819Y-110790475D01*
X169324819Y-109409523D02*
X169324819Y-109980951D01*
X169324819Y-109695237D02*
X168324819Y-109695237D01*
X168324819Y-109695237D02*
X168467676Y-109790475D01*
X168467676Y-109790475D02*
X168562914Y-109885713D01*
X168562914Y-109885713D02*
X168610533Y-109980951D01*
X168324819Y-108504761D02*
X168324819Y-108980951D01*
X168324819Y-108980951D02*
X168801009Y-109028570D01*
X168801009Y-109028570D02*
X168753390Y-108980951D01*
X168753390Y-108980951D02*
X168705771Y-108885713D01*
X168705771Y-108885713D02*
X168705771Y-108647618D01*
X168705771Y-108647618D02*
X168753390Y-108552380D01*
X168753390Y-108552380D02*
X168801009Y-108504761D01*
X168801009Y-108504761D02*
X168896247Y-108457142D01*
X168896247Y-108457142D02*
X169134342Y-108457142D01*
X169134342Y-108457142D02*
X169229580Y-108504761D01*
X169229580Y-108504761D02*
X169277200Y-108552380D01*
X169277200Y-108552380D02*
X169324819Y-108647618D01*
X169324819Y-108647618D02*
X169324819Y-108885713D01*
X169324819Y-108885713D02*
X169277200Y-108980951D01*
X169277200Y-108980951D02*
X169229580Y-109028570D01*
X510916666Y-159004819D02*
X510916666Y-159719104D01*
X510916666Y-159719104D02*
X510869047Y-159861961D01*
X510869047Y-159861961D02*
X510773809Y-159957200D01*
X510773809Y-159957200D02*
X510630952Y-160004819D01*
X510630952Y-160004819D02*
X510535714Y-160004819D01*
X511297619Y-159004819D02*
X511916666Y-159004819D01*
X511916666Y-159004819D02*
X511583333Y-159385771D01*
X511583333Y-159385771D02*
X511726190Y-159385771D01*
X511726190Y-159385771D02*
X511821428Y-159433390D01*
X511821428Y-159433390D02*
X511869047Y-159481009D01*
X511869047Y-159481009D02*
X511916666Y-159576247D01*
X511916666Y-159576247D02*
X511916666Y-159814342D01*
X511916666Y-159814342D02*
X511869047Y-159909580D01*
X511869047Y-159909580D02*
X511821428Y-159957200D01*
X511821428Y-159957200D02*
X511726190Y-160004819D01*
X511726190Y-160004819D02*
X511440476Y-160004819D01*
X511440476Y-160004819D02*
X511345238Y-159957200D01*
X511345238Y-159957200D02*
X511297619Y-159909580D01*
D11*
X231395000Y-120930000D02*
X231395000Y-119600000D01*
X232725000Y-120930000D02*
X231395000Y-120930000D01*
X233995000Y-118270000D02*
X236595000Y-118270000D01*
X233995000Y-120930000D02*
X233995000Y-118270000D01*
X233995000Y-120930000D02*
X236595000Y-120930000D01*
X236595000Y-120930000D02*
X236595000Y-118270000D01*
X58760000Y-120930000D02*
X58760000Y-119600000D01*
X60090000Y-120930000D02*
X58760000Y-120930000D01*
X61360000Y-118270000D02*
X71580000Y-118270000D01*
X61360000Y-120930000D02*
X61360000Y-118270000D01*
X61360000Y-120930000D02*
X71580000Y-120930000D01*
X71580000Y-120930000D02*
X71580000Y-118270000D01*
X231395000Y-110930000D02*
X231395000Y-109600000D01*
X232725000Y-110930000D02*
X231395000Y-110930000D01*
X233995000Y-108270000D02*
X236595000Y-108270000D01*
X233995000Y-110930000D02*
X233995000Y-108270000D01*
X233995000Y-110930000D02*
X236595000Y-110930000D01*
X236595000Y-110930000D02*
X236595000Y-108270000D01*
X169870000Y-120780000D02*
X169870000Y-119450000D01*
X171200000Y-120780000D02*
X169870000Y-120780000D01*
X172470000Y-118120000D02*
X180150000Y-118120000D01*
X172470000Y-120780000D02*
X172470000Y-118120000D01*
X172470000Y-120780000D02*
X180150000Y-120780000D01*
X180150000Y-120780000D02*
X180150000Y-118120000D01*
X58800000Y-110830000D02*
X58800000Y-109500000D01*
X60130000Y-110830000D02*
X58800000Y-110830000D01*
X61400000Y-108170000D02*
X71620000Y-108170000D01*
X61400000Y-110830000D02*
X61400000Y-108170000D01*
X61400000Y-110830000D02*
X71620000Y-110830000D01*
X71620000Y-110830000D02*
X71620000Y-108170000D01*
X169870000Y-110930000D02*
X169870000Y-109600000D01*
X171200000Y-110930000D02*
X169870000Y-110930000D01*
X172470000Y-108270000D02*
X180150000Y-108270000D01*
X172470000Y-110930000D02*
X172470000Y-108270000D01*
X172470000Y-110930000D02*
X180150000Y-110930000D01*
X180150000Y-110930000D02*
X180150000Y-108270000D01*
X509920000Y-160550000D02*
X511250000Y-160550000D01*
X509920000Y-161880000D02*
X509920000Y-160550000D01*
X509920000Y-163150000D02*
X509920000Y-173370000D01*
X509920000Y-163150000D02*
X512580000Y-163150000D01*
X509920000Y-173370000D02*
X512580000Y-173370000D01*
X512580000Y-163150000D02*
X512580000Y-173370000D01*
M02*
