M48
; DRILL file {KiCad 8.0.5-8.0.5-0~ubuntu20.04.1} date 2024-11-01T17:59:14+0000
; FORMAT={-:-/ absolute / metric / decimal}
; #@! TF.CreationDate,2024-11-01T17:59:14+00:00
; #@! TF.GenerationSoftware,Kicad,Pcbnew,8.0.5-8.0.5-0~ubuntu20.04.1
; #@! TF.FileFunction,NonPlated,1,2,NPTH
FMAT,2
METRIC
; #@! TA.AperFunction,NonPlated,NPTH,ComponentDrill
T1C0.650
; #@! TA.AperFunction,NonPlated,NPTH,ComponentDrill
T2C0.900
; #@! TA.AperFunction,NonPlated,NPTH,ComponentDrill
T3C0.991
; #@! TA.AperFunction,NonPlated,NPTH,ComponentDrill
T4C1.750
; #@! TA.AperFunction,NonPlated,NPTH,ComponentDrill
T5C3.048
; #@! TA.AperFunction,NonPlated,NPTH,ComponentDrill
T6C3.988
%
G90
G05
T1
X297.0Y-116.355
X302.78Y-116.355
T2
X38.15Y-160.5
X38.15Y-163.5
T3
X94.119Y-118.94
X95.135Y-124.02
X96.151Y-118.94
T4
X41.17Y-101.28
X41.17Y-127.8
X41.17Y-146.85
X41.17Y-165.9
X41.17Y-184.95
X41.17Y-204.0
X50.695Y-58.6
X50.695Y-79.94
X51.33Y-101.28
X51.33Y-127.8
X51.33Y-146.85
X51.33Y-165.9
X51.33Y-184.95
X51.33Y-204.0
X60.22Y-101.28
X60.22Y-127.8
X60.22Y-146.85
X60.22Y-165.9
X60.22Y-184.95
X60.22Y-204.0
X60.855Y-58.6
X60.855Y-79.94
X70.38Y-101.28
X70.38Y-127.8
X70.38Y-146.85
X70.38Y-165.9
X70.38Y-184.95
X70.38Y-204.0
X79.27Y-101.28
X79.27Y-127.8
X79.27Y-146.85
X79.27Y-165.9
X79.27Y-184.95
X79.27Y-204.0
X88.795Y-58.6
X88.795Y-79.94
X89.43Y-101.28
X89.43Y-127.8
X89.43Y-146.85
X89.43Y-165.9
X89.43Y-184.95
X89.43Y-204.0
X98.32Y-101.28
X98.32Y-127.8
X98.32Y-146.85
X98.32Y-165.9
X98.32Y-184.95
X98.32Y-204.0
X98.955Y-58.6
X98.955Y-79.94
X108.48Y-101.28
X108.48Y-127.8
X108.48Y-146.85
X108.48Y-165.9
X108.48Y-184.95
X108.48Y-204.0
X126.895Y-146.85
X126.895Y-184.95
X126.895Y-204.0
X131.657Y-127.8
X131.657Y-165.9
X136.42Y-58.6
X136.42Y-79.94
X136.42Y-101.28
X137.055Y-146.85
X137.055Y-184.95
X137.055Y-204.0
X141.817Y-127.8
X141.817Y-165.9
X145.945Y-184.95
X145.945Y-204.0
X146.58Y-58.6
X146.58Y-79.94
X146.58Y-101.28
X150.707Y-146.85
X155.47Y-127.8
X156.105Y-184.95
X156.105Y-204.0
X160.232Y-165.9
X160.868Y-146.85
X164.995Y-101.28
X164.995Y-204.0
X165.63Y-127.8
X169.757Y-184.95
X170.392Y-165.9
X174.52Y-58.6
X174.52Y-79.94
X174.52Y-127.8
X175.155Y-101.28
X175.155Y-204.0
X179.282Y-146.85
X179.917Y-184.95
X184.045Y-101.28
X184.045Y-204.0
X184.68Y-58.6
X184.68Y-79.94
X184.68Y-127.8
X188.808Y-165.9
X189.442Y-146.85
X193.57Y-127.8
X194.205Y-101.28
X194.205Y-204.0
X198.332Y-184.95
X198.968Y-165.9
X203.095Y-101.28
X203.095Y-146.85
X203.73Y-127.8
X207.857Y-204.0
X208.492Y-184.95
X212.62Y-58.6
X212.62Y-79.94
X212.62Y-127.8
X212.62Y-165.9
X213.255Y-101.28
X213.255Y-146.85
X218.017Y-204.0
X222.145Y-101.28
X222.145Y-146.85
X222.145Y-184.95
X222.78Y-58.6
X222.78Y-79.94
X222.78Y-127.8
X222.78Y-165.9
X231.67Y-127.8
X231.67Y-165.9
X231.67Y-204.0
X232.305Y-101.28
X232.305Y-146.85
X232.305Y-184.95
X241.195Y-101.28
X241.195Y-146.85
X241.195Y-184.95
X241.83Y-127.8
X241.83Y-165.9
X241.83Y-204.0
X250.72Y-58.6
X250.72Y-79.94
X250.72Y-127.8
X250.72Y-165.9
X251.355Y-101.28
X251.355Y-146.85
X251.355Y-184.95
X255.482Y-204.0
X260.245Y-101.28
X260.245Y-146.85
X260.245Y-184.95
X260.88Y-58.6
X260.88Y-79.94
X260.88Y-127.8
X260.88Y-165.9
X265.642Y-204.0
X269.77Y-127.8
X269.77Y-165.9
X270.405Y-101.28
X270.405Y-146.85
X270.405Y-184.95
X279.295Y-101.28
X279.295Y-146.85
X279.295Y-184.95
X279.93Y-127.8
X279.93Y-165.9
X284.058Y-204.0
X288.82Y-58.6
X288.82Y-79.94
X288.82Y-127.8
X288.82Y-165.9
X289.455Y-101.28
X289.455Y-146.85
X289.455Y-184.95
X294.217Y-204.0
X298.345Y-101.28
X298.345Y-146.85
X298.345Y-184.95
X298.98Y-58.6
X298.98Y-79.94
X298.98Y-127.8
X298.98Y-165.9
X307.87Y-127.8
X307.87Y-165.9
X307.87Y-204.0
X308.505Y-101.28
X308.505Y-146.85
X308.505Y-184.95
X317.395Y-101.28
X317.395Y-146.85
X317.395Y-184.95
X318.03Y-127.8
X318.03Y-165.9
X318.03Y-204.0
X326.92Y-58.6
X326.92Y-79.94
X326.92Y-127.8
X326.92Y-165.9
X327.555Y-101.28
X327.555Y-146.85
X327.555Y-184.95
X331.683Y-204.0
X336.445Y-101.28
X336.445Y-146.85
X336.445Y-184.95
X337.08Y-58.6
X337.08Y-79.94
X337.08Y-127.8
X337.08Y-165.9
X341.842Y-204.0
X345.97Y-127.8
X345.97Y-165.9
X346.605Y-101.28
X346.605Y-146.85
X346.605Y-184.95
X355.495Y-101.28
X355.495Y-146.85
X355.495Y-184.95
X356.13Y-127.8
X356.13Y-165.9
X360.257Y-204.0
X365.02Y-58.6
X365.02Y-79.94
X365.02Y-127.8
X365.02Y-165.9
X365.655Y-101.28
X365.655Y-146.85
X365.655Y-184.95
X370.417Y-204.0
X374.545Y-101.28
X374.545Y-146.85
X374.545Y-184.95
X375.18Y-58.6
X375.18Y-79.94
X375.18Y-127.8
X375.18Y-165.9
X384.07Y-127.8
X384.07Y-165.9
X384.07Y-204.0
X384.705Y-101.28
X384.705Y-146.85
X384.705Y-184.95
X393.595Y-101.28
X393.595Y-146.85
X393.595Y-184.95
X394.23Y-127.8
X394.23Y-165.9
X394.23Y-204.0
X403.12Y-58.6
X403.12Y-79.94
X403.12Y-127.8
X403.12Y-165.9
X403.755Y-101.28
X403.755Y-146.85
X403.755Y-184.95
X407.882Y-204.0
X412.645Y-101.28
X412.645Y-146.85
X413.28Y-58.6
X413.28Y-79.94
X413.28Y-127.8
X413.28Y-165.9
X417.407Y-184.95
X418.042Y-204.0
X422.17Y-127.8
X422.805Y-101.28
X422.805Y-146.85
X426.933Y-165.9
X427.567Y-184.95
X431.695Y-101.28
X431.695Y-204.0
X432.33Y-127.8
X436.457Y-146.85
X437.092Y-165.9
X441.22Y-58.6
X441.22Y-79.94
X441.22Y-127.8
X441.855Y-101.28
X441.855Y-204.0
X445.982Y-184.95
X446.618Y-146.85
X450.745Y-101.28
X450.745Y-204.0
X451.38Y-58.6
X451.38Y-79.94
X451.38Y-127.8
X455.507Y-165.9
X456.142Y-184.95
X460.27Y-127.8
X460.905Y-101.28
X460.905Y-204.0
X465.032Y-146.85
X465.667Y-165.9
X469.795Y-184.95
X469.795Y-204.0
X470.43Y-127.8
X475.192Y-146.85
X479.32Y-58.6
X479.32Y-79.94
X479.32Y-101.28
X479.955Y-184.95
X479.955Y-204.0
X484.082Y-127.8
X484.082Y-165.9
X488.845Y-146.85
X488.845Y-184.95
X488.845Y-204.0
X489.48Y-58.6
X489.48Y-79.94
X489.48Y-101.28
X494.242Y-127.8
X494.242Y-165.9
X499.005Y-146.85
X499.005Y-184.95
X499.005Y-204.0
X517.42Y-101.28
X517.42Y-127.8
X517.42Y-146.85
X517.42Y-165.9
X517.42Y-184.95
X517.42Y-204.0
X526.945Y-58.6
X526.945Y-79.94
X527.58Y-101.28
X527.58Y-127.8
X527.58Y-146.85
X527.58Y-165.9
X527.58Y-184.95
X527.58Y-204.0
X536.47Y-101.28
X536.47Y-127.8
X536.47Y-146.85
X536.47Y-165.9
X536.47Y-184.95
X536.47Y-204.0
X537.105Y-58.6
X537.105Y-79.94
X546.63Y-101.28
X546.63Y-127.8
X546.63Y-146.85
X546.63Y-165.9
X546.63Y-184.95
X546.63Y-204.0
X555.52Y-101.28
X555.52Y-127.8
X555.52Y-146.85
X555.52Y-165.9
X555.52Y-184.95
X555.52Y-204.0
X565.045Y-58.6
X565.045Y-79.94
X565.68Y-101.28
X565.68Y-127.8
X565.68Y-146.85
X565.68Y-165.9
X565.68Y-184.95
X565.68Y-204.0
X574.57Y-101.28
X574.57Y-127.8
X574.57Y-146.85
X574.57Y-165.9
X574.57Y-184.95
X574.57Y-204.0
X575.205Y-58.6
X575.205Y-79.94
X584.73Y-101.28
X584.73Y-127.8
X584.73Y-146.85
X584.73Y-165.9
X584.73Y-184.95
X584.73Y-204.0
T5
X43.837Y-51.615
X43.837Y-72.955
X67.713Y-51.615
X67.713Y-72.955
X81.937Y-51.615
X81.937Y-72.955
X105.813Y-51.615
X105.813Y-72.955
X129.562Y-51.615
X129.562Y-72.955
X129.562Y-94.295
X153.438Y-51.615
X153.438Y-72.955
X153.438Y-94.295
X167.662Y-51.615
X167.662Y-72.955
X191.538Y-51.615
X191.538Y-72.955
X205.762Y-51.615
X205.762Y-72.955
X229.638Y-51.615
X229.638Y-72.955
X243.862Y-51.615
X243.862Y-72.955
X267.738Y-51.615
X267.738Y-72.955
X281.962Y-51.615
X281.962Y-72.955
X305.838Y-51.615
X305.838Y-72.955
X320.062Y-51.615
X320.062Y-72.955
X343.938Y-51.615
X343.938Y-72.955
X358.162Y-51.615
X358.162Y-72.955
X382.038Y-51.615
X382.038Y-72.955
X396.262Y-51.615
X396.262Y-72.955
X420.138Y-51.615
X420.138Y-72.955
X434.362Y-51.615
X434.362Y-72.955
X458.238Y-51.615
X458.238Y-72.955
X472.462Y-51.615
X472.462Y-72.955
X472.462Y-94.295
X496.338Y-51.615
X496.338Y-72.955
X496.338Y-94.295
X520.087Y-51.615
X520.087Y-72.955
X543.963Y-51.615
X543.963Y-72.955
X558.187Y-51.615
X558.187Y-72.955
X582.063Y-51.615
X582.063Y-72.955
T6
X43.837Y-66.855
X43.837Y-88.195
X46.25Y-101.28
X46.25Y-127.8
X46.25Y-146.85
X46.25Y-165.9
X46.25Y-184.95
X46.25Y-204.0
X55.775Y-58.6
X55.775Y-79.94
X65.3Y-101.28
X65.3Y-127.8
X65.3Y-146.85
X65.3Y-165.9
X65.3Y-184.95
X65.3Y-204.0
X67.713Y-66.855
X67.713Y-88.195
X81.937Y-66.855
X81.937Y-88.195
X84.35Y-101.28
X84.35Y-127.8
X84.35Y-146.85
X84.35Y-165.9
X84.35Y-184.95
X84.35Y-204.0
X93.875Y-58.6
X93.875Y-79.94
X103.4Y-101.28
X103.4Y-127.8
X103.4Y-146.85
X103.4Y-165.9
X103.4Y-184.95
X103.4Y-204.0
X105.813Y-66.855
X105.813Y-88.195
X129.562Y-66.855
X129.562Y-88.195
X129.562Y-109.535
X131.975Y-146.85
X131.975Y-184.95
X131.975Y-204.0
X136.737Y-127.8
X136.737Y-165.9
X141.5Y-58.6
X141.5Y-79.94
X141.5Y-101.28
X151.025Y-184.95
X151.025Y-204.0
X153.438Y-66.855
X153.438Y-88.195
X153.438Y-109.535
X155.787Y-146.85
X160.55Y-127.8
X165.312Y-165.9
X167.662Y-66.855
X167.662Y-88.195
X170.075Y-101.28
X170.075Y-204.0
X174.838Y-184.95
X179.6Y-58.6
X179.6Y-79.94
X179.6Y-127.8
X184.362Y-146.85
X189.125Y-101.28
X189.125Y-204.0
X191.538Y-66.855
X191.538Y-88.195
X193.887Y-165.9
X198.65Y-127.8
X203.412Y-184.95
X205.762Y-66.855
X205.762Y-88.195
X208.175Y-101.28
X208.175Y-146.85
X212.938Y-204.0
X217.7Y-58.6
X217.7Y-79.94
X217.7Y-127.8
X217.7Y-165.9
X227.225Y-101.28
X227.225Y-146.85
X227.225Y-184.95
X229.638Y-66.855
X229.638Y-88.195
X236.75Y-127.8
X236.75Y-165.9
X236.75Y-204.0
X243.862Y-66.855
X243.862Y-88.195
X246.275Y-101.28
X246.275Y-146.85
X246.275Y-184.95
X255.8Y-58.6
X255.8Y-79.94
X255.8Y-127.8
X255.8Y-165.9
X260.562Y-204.0
X265.325Y-101.28
X265.325Y-146.85
X265.325Y-184.95
X267.738Y-66.855
X267.738Y-88.195
X274.85Y-127.8
X274.85Y-165.9
X281.962Y-66.855
X281.962Y-88.195
X284.375Y-101.28
X284.375Y-146.85
X284.375Y-184.95
X289.137Y-204.0
X293.9Y-58.6
X293.9Y-79.94
X293.9Y-127.8
X293.9Y-165.9
X303.425Y-101.28
X303.425Y-146.85
X303.425Y-184.95
X305.838Y-66.855
X305.838Y-88.195
X312.95Y-127.8
X312.95Y-165.9
X312.95Y-204.0
X320.062Y-66.855
X320.062Y-88.195
X322.475Y-101.28
X322.475Y-146.85
X322.475Y-184.95
X332.0Y-58.6
X332.0Y-79.94
X332.0Y-127.8
X332.0Y-165.9
X336.762Y-204.0
X341.525Y-101.28
X341.525Y-146.85
X341.525Y-184.95
X343.938Y-66.855
X343.938Y-88.195
X351.05Y-127.8
X351.05Y-165.9
X358.162Y-66.855
X358.162Y-88.195
X360.575Y-101.28
X360.575Y-146.85
X360.575Y-184.95
X365.337Y-204.0
X370.1Y-58.6
X370.1Y-79.94
X370.1Y-127.8
X370.1Y-165.9
X379.625Y-101.28
X379.625Y-146.85
X379.625Y-184.95
X382.038Y-66.855
X382.038Y-88.195
X389.15Y-127.8
X389.15Y-165.9
X389.15Y-204.0
X396.262Y-66.855
X396.262Y-88.195
X398.675Y-101.28
X398.675Y-146.85
X398.675Y-184.95
X408.2Y-58.6
X408.2Y-79.94
X408.2Y-127.8
X408.2Y-165.9
X412.962Y-204.0
X417.725Y-101.28
X417.725Y-146.85
X420.138Y-66.855
X420.138Y-88.195
X422.487Y-184.95
X427.25Y-127.8
X432.012Y-165.9
X434.362Y-66.855
X434.362Y-88.195
X436.775Y-101.28
X436.775Y-204.0
X441.537Y-146.85
X446.3Y-58.6
X446.3Y-79.94
X446.3Y-127.8
X451.062Y-184.95
X455.825Y-101.28
X455.825Y-204.0
X458.238Y-66.855
X458.238Y-88.195
X460.587Y-165.9
X465.35Y-127.8
X470.112Y-146.85
X472.462Y-66.855
X472.462Y-88.195
X472.462Y-109.535
X474.875Y-184.95
X474.875Y-204.0
X484.4Y-58.6
X484.4Y-79.94
X484.4Y-101.28
X489.162Y-127.8
X489.162Y-165.9
X493.925Y-146.85
X493.925Y-184.95
X493.925Y-204.0
X496.338Y-66.855
X496.338Y-88.195
X496.338Y-109.535
X520.087Y-66.855
X520.087Y-88.195
X522.5Y-101.28
X522.5Y-127.8
X522.5Y-146.85
X522.5Y-165.9
X522.5Y-184.95
X522.5Y-204.0
X532.025Y-58.6
X532.025Y-79.94
X541.55Y-101.28
X541.55Y-127.8
X541.55Y-146.85
X541.55Y-165.9
X541.55Y-184.95
X541.55Y-204.0
X543.963Y-66.855
X543.963Y-88.195
X558.187Y-66.855
X558.187Y-88.195
X560.6Y-101.28
X560.6Y-127.8
X560.6Y-146.85
X560.6Y-165.9
X560.6Y-184.95
X560.6Y-204.0
X570.125Y-58.6
X570.125Y-79.94
X579.65Y-101.28
X579.65Y-127.8
X579.65Y-146.85
X579.65Y-165.9
X579.65Y-184.95
X579.65Y-204.0
X582.063Y-66.855
X582.063Y-88.195
M30
