%TF.GenerationSoftware,KiCad,Pcbnew,8.0.5-8.0.5-0~ubuntu20.04.1*%
%TF.CreationDate,2024-11-10T14:11:14+00:00*%
%TF.ProjectId,Hyper7-Evo,48797065-7237-42d4-9576-6f2e6b696361,rev?*%
%TF.SameCoordinates,Original*%
%TF.FileFunction,Soldermask,Top*%
%TF.FilePolarity,Negative*%
%FSLAX46Y46*%
G04 Gerber Fmt 4.6, Leading zero omitted, Abs format (unit mm)*
G04 Created by KiCad (PCBNEW 8.0.5-8.0.5-0~ubuntu20.04.1) date 2024-11-10 14:11:14*
%MOMM*%
%LPD*%
G01*
G04 APERTURE LIST*
%ADD10C,0.000000*%
%ADD11C,1.750000*%
%ADD12C,3.987800*%
%ADD13C,3.048000*%
%ADD14R,1.700000X1.700000*%
%ADD15O,1.700000X1.700000*%
%ADD16C,0.900000*%
%ADD17C,0.990600*%
%ADD18C,0.650000*%
G04 APERTURE END LIST*
D10*
%TO.C,J1*%
G36*
X295720181Y-115742462D02*
G01*
X295862243Y-115793467D01*
X295986264Y-115879503D01*
X296083791Y-115994706D01*
X296148178Y-116131226D01*
X296175000Y-116279552D01*
X296175000Y-117480426D01*
X296149316Y-117630195D01*
X296085646Y-117768426D01*
X295988368Y-117885466D01*
X295864114Y-117973342D01*
X295721350Y-118026064D01*
X295569669Y-118040052D01*
X295276161Y-117973537D01*
X295151632Y-117885466D01*
X295054354Y-117768426D01*
X294990684Y-117630195D01*
X294965000Y-117480426D01*
X294965000Y-116279219D01*
X295055991Y-115994962D01*
X295153736Y-115879503D01*
X295277757Y-115793467D01*
X295419819Y-115742462D01*
X295570000Y-115729983D01*
X295720181Y-115742462D01*
G37*
G36*
X295730015Y-111819835D02*
G01*
X295875588Y-111879422D01*
X296000780Y-111974655D01*
X296097057Y-112099045D01*
X296157860Y-112244115D01*
X296179000Y-112399662D01*
X296179000Y-113000317D01*
X296158994Y-113157309D01*
X296098908Y-113304088D01*
X296002881Y-113430315D01*
X295877455Y-113527387D01*
X295731178Y-113588689D01*
X295573666Y-113610091D01*
X295270811Y-113527593D01*
X295145119Y-113430315D01*
X295049092Y-113304088D01*
X294989006Y-113157309D01*
X294969000Y-113000317D01*
X294969000Y-112399331D01*
X295050737Y-112099311D01*
X295147220Y-111974655D01*
X295272412Y-111879422D01*
X295417985Y-111819835D01*
X295574000Y-111799960D01*
X295730015Y-111819835D01*
G37*
G36*
X304360181Y-115742462D02*
G01*
X304502243Y-115793467D01*
X304626264Y-115879503D01*
X304723791Y-115994706D01*
X304788178Y-116131226D01*
X304815000Y-116279552D01*
X304815000Y-117480426D01*
X304789316Y-117630195D01*
X304725646Y-117768426D01*
X304628368Y-117885466D01*
X304504114Y-117973342D01*
X304361350Y-118026064D01*
X304209669Y-118040052D01*
X303916161Y-117973537D01*
X303791632Y-117885466D01*
X303694354Y-117768426D01*
X303630684Y-117630195D01*
X303605000Y-117480426D01*
X303605000Y-116279219D01*
X303695991Y-115994962D01*
X303793736Y-115879503D01*
X303917757Y-115793467D01*
X304059819Y-115742462D01*
X304210000Y-115729983D01*
X304360181Y-115742462D01*
G37*
G36*
X304366015Y-111819835D02*
G01*
X304511588Y-111879422D01*
X304636780Y-111974655D01*
X304733057Y-112099045D01*
X304793860Y-112244115D01*
X304815000Y-112399662D01*
X304815000Y-113000317D01*
X304794994Y-113157309D01*
X304734908Y-113304088D01*
X304638881Y-113430315D01*
X304513455Y-113527387D01*
X304367178Y-113588689D01*
X304209666Y-113610091D01*
X303906811Y-113527593D01*
X303781119Y-113430315D01*
X303685092Y-113304088D01*
X303625006Y-113157309D01*
X303605000Y-113000317D01*
X303605000Y-112399331D01*
X303686737Y-112099311D01*
X303783220Y-111974655D01*
X303908412Y-111879422D01*
X304053985Y-111819835D01*
X304210000Y-111799960D01*
X304366015Y-111819835D01*
G37*
%TD*%
D11*
%TO.C,MX103*%
X488845000Y-146850000D03*
D12*
X493925000Y-146850000D03*
D11*
X499005000Y-146850000D03*
%TD*%
%TO.C,MX132*%
X574570000Y-165900000D03*
D12*
X579650000Y-165900000D03*
D11*
X584730000Y-165900000D03*
%TD*%
%TO.C,MX47*%
X412645000Y-101280000D03*
D12*
X417725000Y-101280000D03*
D11*
X422805000Y-101280000D03*
%TD*%
D13*
%TO.C,ST19*%
X205762000Y-72955000D03*
D12*
X205762000Y-88195000D03*
D13*
X229638000Y-72955000D03*
D12*
X229638000Y-88195000D03*
%TD*%
D11*
%TO.C,MX161*%
X79270000Y-204000000D03*
D12*
X84350000Y-204000000D03*
D11*
X89430000Y-204000000D03*
%TD*%
%TO.C,MX18*%
X174520000Y-79940000D03*
D12*
X179600000Y-79940000D03*
D11*
X184680000Y-79940000D03*
%TD*%
%TO.C,MX167*%
X207857500Y-204000000D03*
D12*
X212937500Y-204000000D03*
D11*
X218017500Y-204000000D03*
%TD*%
%TO.C,MX71*%
X365020000Y-127800000D03*
D12*
X370100000Y-127800000D03*
D11*
X375180000Y-127800000D03*
%TD*%
D13*
%TO.C,ST7*%
X281962000Y-51615000D03*
D12*
X281962000Y-66855000D03*
D13*
X305838000Y-51615000D03*
D12*
X305838000Y-66855000D03*
%TD*%
D11*
%TO.C,MX3*%
X136420000Y-58600000D03*
D12*
X141500000Y-58600000D03*
D11*
X146580000Y-58600000D03*
%TD*%
%TO.C,MX178*%
X469795000Y-204000000D03*
D12*
X474875000Y-204000000D03*
D11*
X479955000Y-204000000D03*
%TD*%
%TO.C,MX36*%
X203095000Y-101280000D03*
D12*
X208175000Y-101280000D03*
D11*
X213255000Y-101280000D03*
%TD*%
%TO.C,MX141*%
X222145000Y-184950000D03*
D12*
X227225000Y-184950000D03*
D11*
X232305000Y-184950000D03*
%TD*%
%TO.C,MX56*%
X60220000Y-127800000D03*
D12*
X65300000Y-127800000D03*
D11*
X70380000Y-127800000D03*
%TD*%
%TO.C,MX155*%
X517420000Y-184950000D03*
D12*
X522500000Y-184950000D03*
D11*
X527580000Y-184950000D03*
%TD*%
%TO.C,MX108*%
X41170000Y-165900000D03*
D12*
X46250000Y-165900000D03*
D11*
X51330000Y-165900000D03*
%TD*%
%TO.C,MX39*%
X260245000Y-101280000D03*
D12*
X265325000Y-101280000D03*
D11*
X270405000Y-101280000D03*
%TD*%
%TO.C,MX82*%
X41170000Y-146850000D03*
D12*
X46250000Y-146850000D03*
D11*
X51330000Y-146850000D03*
%TD*%
%TO.C,MX8*%
X326920000Y-58600000D03*
D12*
X332000000Y-58600000D03*
D11*
X337080000Y-58600000D03*
%TD*%
%TO.C,MX130*%
X536470000Y-165900000D03*
D12*
X541550000Y-165900000D03*
D11*
X546630000Y-165900000D03*
%TD*%
%TO.C,MX43*%
X336445000Y-101280000D03*
D12*
X341525000Y-101280000D03*
D11*
X346605000Y-101280000D03*
%TD*%
%TO.C,MX11*%
X441220000Y-58600000D03*
D12*
X446300000Y-58600000D03*
D11*
X451380000Y-58600000D03*
%TD*%
%TO.C,MX117*%
X250720000Y-165900000D03*
D12*
X255800000Y-165900000D03*
D11*
X260880000Y-165900000D03*
%TD*%
D13*
%TO.C,ST50*%
X472462000Y-94295000D03*
D12*
X472462000Y-109535000D03*
D13*
X496338000Y-94295000D03*
D12*
X496338000Y-109535000D03*
%TD*%
D11*
%TO.C,MX124*%
X384070000Y-165900000D03*
D12*
X389150000Y-165900000D03*
D11*
X394230000Y-165900000D03*
%TD*%
D13*
%TO.C,ST18*%
X167662000Y-72955000D03*
D12*
X167662000Y-88195000D03*
D13*
X191538000Y-72955000D03*
D12*
X191538000Y-88195000D03*
%TD*%
D11*
%TO.C,MX55*%
X41170000Y-127800000D03*
D12*
X46250000Y-127800000D03*
D11*
X51330000Y-127800000D03*
%TD*%
%TO.C,MX76*%
X460270000Y-127800000D03*
D12*
X465350000Y-127800000D03*
D11*
X470430000Y-127800000D03*
%TD*%
%TO.C,MX27*%
X526945000Y-79940000D03*
D12*
X532025000Y-79940000D03*
D11*
X537105000Y-79940000D03*
%TD*%
%TO.C,MX66*%
X269770000Y-127800000D03*
D12*
X274850000Y-127800000D03*
D11*
X279930000Y-127800000D03*
%TD*%
D13*
%TO.C,ST1*%
X43837000Y-51615000D03*
D12*
X43837000Y-66855000D03*
D13*
X67713000Y-51615000D03*
D12*
X67713000Y-66855000D03*
%TD*%
D11*
%TO.C,MX60*%
X155470000Y-127800000D03*
D12*
X160550000Y-127800000D03*
D11*
X165630000Y-127800000D03*
%TD*%
%TO.C,MX46*%
X393595000Y-101280000D03*
D12*
X398675000Y-101280000D03*
D11*
X403755000Y-101280000D03*
%TD*%
%TO.C,MX23*%
X365020000Y-79940000D03*
D12*
X370100000Y-79940000D03*
D11*
X375180000Y-79940000D03*
%TD*%
%TO.C,MX127*%
X455507500Y-165900000D03*
D12*
X460587500Y-165900000D03*
D11*
X465667500Y-165900000D03*
%TD*%
%TO.C,MX112*%
X131657500Y-165900000D03*
D12*
X136737500Y-165900000D03*
D11*
X141817500Y-165900000D03*
%TD*%
%TO.C,MX109*%
X60220000Y-165900000D03*
D12*
X65300000Y-165900000D03*
D11*
X70380000Y-165900000D03*
%TD*%
%TO.C,MX174*%
X384070000Y-204000000D03*
D12*
X389150000Y-204000000D03*
D11*
X394230000Y-204000000D03*
%TD*%
%TO.C,MX81*%
X574570000Y-127800000D03*
D12*
X579650000Y-127800000D03*
D11*
X584730000Y-127800000D03*
%TD*%
D13*
%TO.C,ST33*%
X129562000Y-94295000D03*
D12*
X129562000Y-109535000D03*
D13*
X153438000Y-94295000D03*
D12*
X153438000Y-109535000D03*
%TD*%
D11*
%TO.C,MX120*%
X307870000Y-165900000D03*
D12*
X312950000Y-165900000D03*
D11*
X318030000Y-165900000D03*
%TD*%
%TO.C,MX146*%
X317395000Y-184950000D03*
D12*
X322475000Y-184950000D03*
D11*
X327555000Y-184950000D03*
%TD*%
%TO.C,MX64*%
X231670000Y-127800000D03*
D12*
X236750000Y-127800000D03*
D11*
X241830000Y-127800000D03*
%TD*%
%TO.C,MX41*%
X298345000Y-101280000D03*
D12*
X303425000Y-101280000D03*
D11*
X308505000Y-101280000D03*
%TD*%
%TO.C,MX32*%
X98320000Y-101280000D03*
D12*
X103400000Y-101280000D03*
D11*
X108480000Y-101280000D03*
%TD*%
%TO.C,MX72*%
X384070000Y-127800000D03*
D12*
X389150000Y-127800000D03*
D11*
X394230000Y-127800000D03*
%TD*%
%TO.C,MX149*%
X374545000Y-184950000D03*
D12*
X379625000Y-184950000D03*
D11*
X384705000Y-184950000D03*
%TD*%
%TO.C,MX62*%
X193570000Y-127800000D03*
D12*
X198650000Y-127800000D03*
D11*
X203730000Y-127800000D03*
%TD*%
D13*
%TO.C,ST10*%
X396262000Y-51615000D03*
D12*
X396262000Y-66855000D03*
D13*
X420138000Y-51615000D03*
D12*
X420138000Y-66855000D03*
%TD*%
D11*
%TO.C,MX113*%
X160232500Y-165900000D03*
D12*
X165312500Y-165900000D03*
D11*
X170392500Y-165900000D03*
%TD*%
D13*
%TO.C,ST9*%
X358162000Y-51615000D03*
D12*
X358162000Y-66855000D03*
D13*
X382038000Y-51615000D03*
D12*
X382038000Y-66855000D03*
%TD*%
D13*
%TO.C,ST2*%
X81937000Y-51615000D03*
D12*
X81937000Y-66855000D03*
D13*
X105813000Y-51615000D03*
D12*
X105813000Y-66855000D03*
%TD*%
D14*
%TO.C,J16*%
X232725000Y-119600000D03*
D15*
X235265000Y-119600000D03*
%TD*%
D13*
%TO.C,ST15*%
X43837000Y-72955000D03*
D12*
X43837000Y-88195000D03*
D13*
X67713000Y-72955000D03*
D12*
X67713000Y-88195000D03*
%TD*%
D11*
%TO.C,MX40*%
X279295000Y-101280000D03*
D12*
X284375000Y-101280000D03*
D11*
X289455000Y-101280000D03*
%TD*%
%TO.C,MX177*%
X450745000Y-204000000D03*
D12*
X455825000Y-204000000D03*
D11*
X460905000Y-204000000D03*
%TD*%
D13*
%TO.C,ST21*%
X281962000Y-72955000D03*
D12*
X281962000Y-88195000D03*
D13*
X305838000Y-72955000D03*
D12*
X305838000Y-88195000D03*
%TD*%
D11*
%TO.C,MX151*%
X417407500Y-184950000D03*
D12*
X422487500Y-184950000D03*
D11*
X427567500Y-184950000D03*
%TD*%
%TO.C,MX121*%
X326920000Y-165900000D03*
D12*
X332000000Y-165900000D03*
D11*
X337080000Y-165900000D03*
%TD*%
%TO.C,MX50*%
X479320000Y-101280000D03*
D12*
X484400000Y-101280000D03*
D11*
X489480000Y-101280000D03*
%TD*%
%TO.C,MX160*%
X60220000Y-204000000D03*
D12*
X65300000Y-204000000D03*
D11*
X70380000Y-204000000D03*
%TD*%
%TO.C,MX157*%
X555520000Y-184950000D03*
D12*
X560600000Y-184950000D03*
D11*
X565680000Y-184950000D03*
%TD*%
D13*
%TO.C,ST16*%
X81937000Y-72955000D03*
D12*
X81937000Y-88195000D03*
D13*
X105813000Y-72955000D03*
D12*
X105813000Y-88195000D03*
%TD*%
D11*
%TO.C,MX33*%
X136420000Y-101280000D03*
D12*
X141500000Y-101280000D03*
D11*
X146580000Y-101280000D03*
%TD*%
%TO.C,MX115*%
X212620000Y-165900000D03*
D12*
X217700000Y-165900000D03*
D11*
X222780000Y-165900000D03*
%TD*%
%TO.C,MX136*%
X98320000Y-184950000D03*
D12*
X103400000Y-184950000D03*
D11*
X108480000Y-184950000D03*
%TD*%
%TO.C,MX94*%
X298345000Y-146850000D03*
D12*
X303425000Y-146850000D03*
D11*
X308505000Y-146850000D03*
%TD*%
%TO.C,MX88*%
X179282500Y-146850000D03*
D12*
X184362500Y-146850000D03*
D11*
X189442500Y-146850000D03*
%TD*%
%TO.C,MX106*%
X555520000Y-146850000D03*
D12*
X560600000Y-146850000D03*
D11*
X565680000Y-146850000D03*
%TD*%
%TO.C,MX73*%
X403120000Y-127800000D03*
D12*
X408200000Y-127800000D03*
D11*
X413280000Y-127800000D03*
%TD*%
%TO.C,MX111*%
X98320000Y-165900000D03*
D12*
X103400000Y-165900000D03*
D11*
X108480000Y-165900000D03*
%TD*%
D14*
%TO.C,J6*%
X60090000Y-119600000D03*
D15*
X62630000Y-119600000D03*
X65170000Y-119600000D03*
X67710000Y-119600000D03*
X70250000Y-119600000D03*
%TD*%
D11*
%TO.C,MX122*%
X345970000Y-165900000D03*
D12*
X351050000Y-165900000D03*
D11*
X356130000Y-165900000D03*
%TD*%
%TO.C,MX153*%
X469795000Y-184950000D03*
D12*
X474875000Y-184950000D03*
D11*
X479955000Y-184950000D03*
%TD*%
%TO.C,MX78*%
X517420000Y-127800000D03*
D12*
X522500000Y-127800000D03*
D11*
X527580000Y-127800000D03*
%TD*%
%TO.C,MX22*%
X326920000Y-79940000D03*
D12*
X332000000Y-79940000D03*
D11*
X337080000Y-79940000D03*
%TD*%
%TO.C,MX125*%
X403120000Y-165900000D03*
D12*
X408200000Y-165900000D03*
D11*
X413280000Y-165900000D03*
%TD*%
%TO.C,MX69*%
X326920000Y-127800000D03*
D12*
X332000000Y-127800000D03*
D11*
X337080000Y-127800000D03*
%TD*%
D13*
%TO.C,ST17*%
X129562000Y-72955000D03*
D12*
X129562000Y-88195000D03*
D13*
X153438000Y-72955000D03*
D12*
X153438000Y-88195000D03*
%TD*%
D11*
%TO.C,MX104*%
X517420000Y-146850000D03*
D12*
X522500000Y-146850000D03*
D11*
X527580000Y-146850000D03*
%TD*%
%TO.C,MX150*%
X393595000Y-184950000D03*
D12*
X398675000Y-184950000D03*
D11*
X403755000Y-184950000D03*
%TD*%
%TO.C,MX65*%
X250720000Y-127800000D03*
D12*
X255800000Y-127800000D03*
D11*
X260880000Y-127800000D03*
%TD*%
%TO.C,MX156*%
X536470000Y-184950000D03*
D12*
X541550000Y-184950000D03*
D11*
X546630000Y-184950000D03*
%TD*%
D13*
%TO.C,ST13*%
X520087000Y-51615000D03*
D12*
X520087000Y-66855000D03*
D13*
X543963000Y-51615000D03*
D12*
X543963000Y-66855000D03*
%TD*%
D11*
%TO.C,MX163*%
X126895000Y-204000000D03*
D12*
X131975000Y-204000000D03*
D11*
X137055000Y-204000000D03*
%TD*%
%TO.C,MX133*%
X41170000Y-184950000D03*
D12*
X46250000Y-184950000D03*
D11*
X51330000Y-184950000D03*
%TD*%
%TO.C,MX53*%
X555520000Y-101280000D03*
D12*
X560600000Y-101280000D03*
D11*
X565680000Y-101280000D03*
%TD*%
%TO.C,MX59*%
X131657500Y-127800000D03*
D12*
X136737500Y-127800000D03*
D11*
X141817500Y-127800000D03*
%TD*%
%TO.C,MX67*%
X288820000Y-127800000D03*
D12*
X293900000Y-127800000D03*
D11*
X298980000Y-127800000D03*
%TD*%
%TO.C,MX89*%
X203095000Y-146850000D03*
D12*
X208175000Y-146850000D03*
D11*
X213255000Y-146850000D03*
%TD*%
%TO.C,MX118*%
X269770000Y-165900000D03*
D12*
X274850000Y-165900000D03*
D11*
X279930000Y-165900000D03*
%TD*%
%TO.C,MX26*%
X479320000Y-79940000D03*
D12*
X484400000Y-79940000D03*
D11*
X489480000Y-79940000D03*
%TD*%
%TO.C,MX162*%
X98320000Y-204000000D03*
D12*
X103400000Y-204000000D03*
D11*
X108480000Y-204000000D03*
%TD*%
%TO.C,MX105*%
X536470000Y-146850000D03*
D12*
X541550000Y-146850000D03*
D11*
X546630000Y-146850000D03*
%TD*%
%TO.C,MX63*%
X212620000Y-127800000D03*
D12*
X217700000Y-127800000D03*
D11*
X222780000Y-127800000D03*
%TD*%
D14*
%TO.C,J17*%
X232725000Y-109600000D03*
D15*
X235265000Y-109600000D03*
%TD*%
D11*
%TO.C,MX171*%
X307870000Y-204000000D03*
D12*
X312950000Y-204000000D03*
D11*
X318030000Y-204000000D03*
%TD*%
%TO.C,MX152*%
X445982500Y-184950000D03*
D12*
X451062500Y-184950000D03*
D11*
X456142500Y-184950000D03*
%TD*%
%TO.C,MX154*%
X488845000Y-184950000D03*
D12*
X493925000Y-184950000D03*
D11*
X499005000Y-184950000D03*
%TD*%
%TO.C,MX140*%
X198332500Y-184950000D03*
D12*
X203412500Y-184950000D03*
D11*
X208492500Y-184950000D03*
%TD*%
%TO.C,MX30*%
X60220000Y-101280000D03*
D12*
X65300000Y-101280000D03*
D11*
X70380000Y-101280000D03*
%TD*%
%TO.C,MX54*%
X574570000Y-101280000D03*
D12*
X579650000Y-101280000D03*
D11*
X584730000Y-101280000D03*
%TD*%
%TO.C,MX148*%
X355495000Y-184950000D03*
D12*
X360575000Y-184950000D03*
D11*
X365655000Y-184950000D03*
%TD*%
%TO.C,MX75*%
X441220000Y-127800000D03*
D12*
X446300000Y-127800000D03*
D11*
X451380000Y-127800000D03*
%TD*%
%TO.C,MX84*%
X79270000Y-146850000D03*
D12*
X84350000Y-146850000D03*
D11*
X89430000Y-146850000D03*
%TD*%
%TO.C,MX97*%
X355495000Y-146850000D03*
D12*
X360575000Y-146850000D03*
D11*
X365655000Y-146850000D03*
%TD*%
%TO.C,MX68*%
X307870000Y-127800000D03*
D12*
X312950000Y-127800000D03*
D11*
X318030000Y-127800000D03*
%TD*%
%TO.C,MX138*%
X145945000Y-184950000D03*
D12*
X151025000Y-184950000D03*
D11*
X156105000Y-184950000D03*
%TD*%
D14*
%TO.C,J14*%
X171200000Y-119450000D03*
D15*
X173740000Y-119450000D03*
X176280000Y-119450000D03*
X178820000Y-119450000D03*
%TD*%
D11*
%TO.C,MX128*%
X484082500Y-165900000D03*
D12*
X489162500Y-165900000D03*
D11*
X494242500Y-165900000D03*
%TD*%
%TO.C,MX175*%
X407882500Y-204000000D03*
D12*
X412962500Y-204000000D03*
D11*
X418042500Y-204000000D03*
%TD*%
%TO.C,MX91*%
X241195000Y-146850000D03*
D12*
X246275000Y-146850000D03*
D11*
X251355000Y-146850000D03*
%TD*%
%TO.C,MX20*%
X250720000Y-79940000D03*
D12*
X255800000Y-79940000D03*
D11*
X260880000Y-79940000D03*
%TD*%
%TO.C,MX79*%
X536470000Y-127800000D03*
D12*
X541550000Y-127800000D03*
D11*
X546630000Y-127800000D03*
%TD*%
%TO.C,MX24*%
X403120000Y-79940000D03*
D12*
X408200000Y-79940000D03*
D11*
X413280000Y-79940000D03*
%TD*%
%TO.C,MX145*%
X298345000Y-184950000D03*
D12*
X303425000Y-184950000D03*
D11*
X308505000Y-184950000D03*
%TD*%
%TO.C,MX4*%
X174520000Y-58600000D03*
D12*
X179600000Y-58600000D03*
D11*
X184680000Y-58600000D03*
%TD*%
%TO.C,MX137*%
X126895000Y-184950000D03*
D12*
X131975000Y-184950000D03*
D11*
X137055000Y-184950000D03*
%TD*%
D14*
%TO.C,J8*%
X60130000Y-109500000D03*
D15*
X62670000Y-109500000D03*
X65210000Y-109500000D03*
X67750000Y-109500000D03*
X70290000Y-109500000D03*
%TD*%
D11*
%TO.C,MX44*%
X355495000Y-101280000D03*
D12*
X360575000Y-101280000D03*
D11*
X365655000Y-101280000D03*
%TD*%
%TO.C,MX172*%
X331682500Y-204000000D03*
D12*
X336762500Y-204000000D03*
D11*
X341842500Y-204000000D03*
%TD*%
%TO.C,MX126*%
X426932500Y-165900000D03*
D12*
X432012500Y-165900000D03*
D11*
X437092500Y-165900000D03*
%TD*%
%TO.C,MX173*%
X360257500Y-204000000D03*
D12*
X365337500Y-204000000D03*
D11*
X370417500Y-204000000D03*
%TD*%
%TO.C,MX13*%
X526945000Y-58600000D03*
D12*
X532025000Y-58600000D03*
D11*
X537105000Y-58600000D03*
%TD*%
%TO.C,MX158*%
X574570000Y-184950000D03*
D12*
X579650000Y-184950000D03*
D11*
X584730000Y-184950000D03*
%TD*%
%TO.C,MX42*%
X317395000Y-101280000D03*
D12*
X322475000Y-101280000D03*
D11*
X327555000Y-101280000D03*
%TD*%
D13*
%TO.C,ST25*%
X434362000Y-72955000D03*
D12*
X434362000Y-88195000D03*
D13*
X458238000Y-72955000D03*
D12*
X458238000Y-88195000D03*
%TD*%
D11*
%TO.C,MX179*%
X488845000Y-204000000D03*
D12*
X493925000Y-204000000D03*
D11*
X499005000Y-204000000D03*
%TD*%
D14*
%TO.C,J15*%
X171200000Y-109600000D03*
D15*
X173740000Y-109600000D03*
X176280000Y-109600000D03*
X178820000Y-109600000D03*
%TD*%
D11*
%TO.C,MX134*%
X60220000Y-184950000D03*
D12*
X65300000Y-184950000D03*
D11*
X70380000Y-184950000D03*
%TD*%
%TO.C,MX114*%
X188807500Y-165900000D03*
D12*
X193887500Y-165900000D03*
D11*
X198967500Y-165900000D03*
%TD*%
%TO.C,MX25*%
X441220000Y-79940000D03*
D12*
X446300000Y-79940000D03*
D11*
X451380000Y-79940000D03*
%TD*%
%TO.C,MX99*%
X393595000Y-146850000D03*
D12*
X398675000Y-146850000D03*
D11*
X403755000Y-146850000D03*
%TD*%
%TO.C,MX143*%
X260245000Y-184950000D03*
D12*
X265325000Y-184950000D03*
D11*
X270405000Y-184950000D03*
%TD*%
%TO.C,MX51*%
X517420000Y-101280000D03*
D12*
X522500000Y-101280000D03*
D11*
X527580000Y-101280000D03*
%TD*%
%TO.C,MX1*%
X50695000Y-58600000D03*
D12*
X55775000Y-58600000D03*
D11*
X60855000Y-58600000D03*
%TD*%
D13*
%TO.C,ST23*%
X358162000Y-72955000D03*
D12*
X358162000Y-88195000D03*
D13*
X382038000Y-72955000D03*
D12*
X382038000Y-88195000D03*
%TD*%
D11*
%TO.C,MX77*%
X484082500Y-127800000D03*
D12*
X489162500Y-127800000D03*
D11*
X494242500Y-127800000D03*
%TD*%
%TO.C,MX90*%
X222145000Y-146850000D03*
D12*
X227225000Y-146850000D03*
D11*
X232305000Y-146850000D03*
%TD*%
%TO.C,MX180*%
X517420000Y-204000000D03*
D12*
X522500000Y-204000000D03*
D11*
X527580000Y-204000000D03*
%TD*%
%TO.C,MX93*%
X279295000Y-146850000D03*
D12*
X284375000Y-146850000D03*
D11*
X289455000Y-146850000D03*
%TD*%
%TO.C,MX116*%
X231670000Y-165900000D03*
D12*
X236750000Y-165900000D03*
D11*
X241830000Y-165900000D03*
%TD*%
%TO.C,MX48*%
X431695000Y-101280000D03*
D12*
X436775000Y-101280000D03*
D11*
X441855000Y-101280000D03*
%TD*%
%TO.C,MX170*%
X284057500Y-204000000D03*
D12*
X289137500Y-204000000D03*
D11*
X294217500Y-204000000D03*
%TD*%
D13*
%TO.C,ST28*%
X558187000Y-72955000D03*
D12*
X558187000Y-88195000D03*
D13*
X582063000Y-72955000D03*
D12*
X582063000Y-88195000D03*
%TD*%
D11*
%TO.C,MX107*%
X574570000Y-146850000D03*
D12*
X579650000Y-146850000D03*
D11*
X584730000Y-146850000D03*
%TD*%
D13*
%TO.C,ST24*%
X396262000Y-72955000D03*
D12*
X396262000Y-88195000D03*
D13*
X420138000Y-72955000D03*
D12*
X420138000Y-88195000D03*
%TD*%
D11*
%TO.C,MX37*%
X222145000Y-101280000D03*
D12*
X227225000Y-101280000D03*
D11*
X232305000Y-101280000D03*
%TD*%
%TO.C,MX2*%
X88795000Y-58600000D03*
D12*
X93875000Y-58600000D03*
D11*
X98955000Y-58600000D03*
%TD*%
%TO.C,MX142*%
X241195000Y-184950000D03*
D12*
X246275000Y-184950000D03*
D11*
X251355000Y-184950000D03*
%TD*%
%TO.C,MX147*%
X336445000Y-184950000D03*
D12*
X341525000Y-184950000D03*
D11*
X346605000Y-184950000D03*
%TD*%
%TO.C,MX86*%
X126895000Y-146850000D03*
D12*
X131975000Y-146850000D03*
D11*
X137055000Y-146850000D03*
%TD*%
%TO.C,MX165*%
X164995000Y-204000000D03*
D12*
X170075000Y-204000000D03*
D11*
X175155000Y-204000000D03*
%TD*%
%TO.C,MX169*%
X255482500Y-204000000D03*
D12*
X260562500Y-204000000D03*
D11*
X265642500Y-204000000D03*
%TD*%
%TO.C,MX9*%
X365020000Y-58600000D03*
D12*
X370100000Y-58600000D03*
D11*
X375180000Y-58600000D03*
%TD*%
D14*
%TO.C,J3*%
X511250000Y-161880000D03*
D15*
X511250000Y-164420000D03*
X511250000Y-166960000D03*
X511250000Y-169500000D03*
X511250000Y-172040000D03*
%TD*%
D11*
%TO.C,MX74*%
X422170000Y-127800000D03*
D12*
X427250000Y-127800000D03*
D11*
X432330000Y-127800000D03*
%TD*%
%TO.C,MX16*%
X88795000Y-79940000D03*
D12*
X93875000Y-79940000D03*
D11*
X98955000Y-79940000D03*
%TD*%
%TO.C,MX14*%
X565045000Y-58600000D03*
D12*
X570125000Y-58600000D03*
D11*
X575205000Y-58600000D03*
%TD*%
%TO.C,MX144*%
X279295000Y-184950000D03*
D12*
X284375000Y-184950000D03*
D11*
X289455000Y-184950000D03*
%TD*%
%TO.C,MX129*%
X517420000Y-165900000D03*
D12*
X522500000Y-165900000D03*
D11*
X527580000Y-165900000D03*
%TD*%
%TO.C,MX35*%
X184045000Y-101280000D03*
D12*
X189125000Y-101280000D03*
D11*
X194205000Y-101280000D03*
%TD*%
%TO.C,MX110*%
X79270000Y-165900000D03*
D12*
X84350000Y-165900000D03*
D11*
X89430000Y-165900000D03*
%TD*%
%TO.C,MX6*%
X250720000Y-58600000D03*
D12*
X255800000Y-58600000D03*
D11*
X260880000Y-58600000D03*
%TD*%
%TO.C,MX17*%
X136420000Y-79940000D03*
D12*
X141500000Y-79940000D03*
D11*
X146580000Y-79940000D03*
%TD*%
%TO.C,MX12*%
X479320000Y-58600000D03*
D12*
X484400000Y-58600000D03*
D11*
X489480000Y-58600000D03*
%TD*%
%TO.C,MX95*%
X317395000Y-146850000D03*
D12*
X322475000Y-146850000D03*
D11*
X327555000Y-146850000D03*
%TD*%
%TO.C,MX164*%
X145945000Y-204000000D03*
D12*
X151025000Y-204000000D03*
D11*
X156105000Y-204000000D03*
%TD*%
D13*
%TO.C,ST26*%
X472462000Y-72955000D03*
D12*
X472462000Y-88195000D03*
D13*
X496338000Y-72955000D03*
D12*
X496338000Y-88195000D03*
%TD*%
D11*
%TO.C,MX57*%
X79270000Y-127800000D03*
D12*
X84350000Y-127800000D03*
D11*
X89430000Y-127800000D03*
%TD*%
%TO.C,MX102*%
X465032500Y-146850000D03*
D12*
X470112500Y-146850000D03*
D11*
X475192500Y-146850000D03*
%TD*%
%TO.C,MX45*%
X374545000Y-101280000D03*
D12*
X379625000Y-101280000D03*
D11*
X384705000Y-101280000D03*
%TD*%
%TO.C,MX83*%
X60220000Y-146850000D03*
D12*
X65300000Y-146850000D03*
D11*
X70380000Y-146850000D03*
%TD*%
%TO.C,MX101*%
X436457500Y-146850000D03*
D12*
X441537500Y-146850000D03*
D11*
X446617500Y-146850000D03*
%TD*%
%TO.C,MX96*%
X336445000Y-146850000D03*
D12*
X341525000Y-146850000D03*
D11*
X346605000Y-146850000D03*
%TD*%
D13*
%TO.C,ST3*%
X129562000Y-51615000D03*
D12*
X129562000Y-66855000D03*
D13*
X153438000Y-51615000D03*
D12*
X153438000Y-66855000D03*
%TD*%
D11*
%TO.C,MX58*%
X98320000Y-127800000D03*
D12*
X103400000Y-127800000D03*
D11*
X108480000Y-127800000D03*
%TD*%
D13*
%TO.C,ST20*%
X243862000Y-72955000D03*
D12*
X243862000Y-88195000D03*
D13*
X267738000Y-72955000D03*
D12*
X267738000Y-88195000D03*
%TD*%
D11*
%TO.C,MX139*%
X169757500Y-184950000D03*
D12*
X174837500Y-184950000D03*
D11*
X179917500Y-184950000D03*
%TD*%
%TO.C,MX52*%
X536470000Y-101280000D03*
D12*
X541550000Y-101280000D03*
D11*
X546630000Y-101280000D03*
%TD*%
D13*
%TO.C,ST22*%
X320062000Y-72955000D03*
D12*
X320062000Y-88195000D03*
D13*
X343938000Y-72955000D03*
D12*
X343938000Y-88195000D03*
%TD*%
D13*
%TO.C,ST5*%
X205762000Y-51615000D03*
D12*
X205762000Y-66855000D03*
D13*
X229638000Y-51615000D03*
D12*
X229638000Y-66855000D03*
%TD*%
D11*
%TO.C,MX80*%
X555520000Y-127800000D03*
D12*
X560600000Y-127800000D03*
D11*
X565680000Y-127800000D03*
%TD*%
%TO.C,MX31*%
X79270000Y-101280000D03*
D12*
X84350000Y-101280000D03*
D11*
X89430000Y-101280000D03*
%TD*%
%TO.C,MX168*%
X231670000Y-204000000D03*
D12*
X236750000Y-204000000D03*
D11*
X241830000Y-204000000D03*
%TD*%
%TO.C,MX7*%
X288820000Y-58600000D03*
D12*
X293900000Y-58600000D03*
D11*
X298980000Y-58600000D03*
%TD*%
%TO.C,MX85*%
X98320000Y-146850000D03*
D12*
X103400000Y-146850000D03*
D11*
X108480000Y-146850000D03*
%TD*%
%TO.C,MX181*%
X536470000Y-204000000D03*
D12*
X541550000Y-204000000D03*
D11*
X546630000Y-204000000D03*
%TD*%
%TO.C,MX159*%
X41170000Y-204000000D03*
D12*
X46250000Y-204000000D03*
D11*
X51330000Y-204000000D03*
%TD*%
%TO.C,MX87*%
X150707500Y-146850000D03*
D12*
X155787500Y-146850000D03*
D11*
X160867500Y-146850000D03*
%TD*%
%TO.C,MX29*%
X41170000Y-101280000D03*
D12*
X46250000Y-101280000D03*
D11*
X51330000Y-101280000D03*
%TD*%
%TO.C,MX49*%
X450745000Y-101280000D03*
D12*
X455825000Y-101280000D03*
D11*
X460905000Y-101280000D03*
%TD*%
%TO.C,MX166*%
X184045000Y-204000000D03*
D12*
X189125000Y-204000000D03*
D11*
X194205000Y-204000000D03*
%TD*%
D13*
%TO.C,ST6*%
X243862000Y-51615000D03*
D12*
X243862000Y-66855000D03*
D13*
X267738000Y-51615000D03*
D12*
X267738000Y-66855000D03*
%TD*%
D13*
%TO.C,ST11*%
X434362000Y-51615000D03*
D12*
X434362000Y-66855000D03*
D13*
X458238000Y-51615000D03*
D12*
X458238000Y-66855000D03*
%TD*%
D11*
%TO.C,MX38*%
X241195000Y-101280000D03*
D12*
X246275000Y-101280000D03*
D11*
X251355000Y-101280000D03*
%TD*%
D13*
%TO.C,ST12*%
X472462000Y-51615000D03*
D12*
X472462000Y-66855000D03*
D13*
X496338000Y-51615000D03*
D12*
X496338000Y-66855000D03*
%TD*%
D11*
%TO.C,MX28*%
X565045000Y-79940000D03*
D12*
X570125000Y-79940000D03*
D11*
X575205000Y-79940000D03*
%TD*%
%TO.C,MX34*%
X164995000Y-101280000D03*
D12*
X170075000Y-101280000D03*
D11*
X175155000Y-101280000D03*
%TD*%
%TO.C,MX123*%
X365020000Y-165900000D03*
D12*
X370100000Y-165900000D03*
D11*
X375180000Y-165900000D03*
%TD*%
%TO.C,MX100*%
X412645000Y-146850000D03*
D12*
X417725000Y-146850000D03*
D11*
X422805000Y-146850000D03*
%TD*%
%TO.C,MX19*%
X212620000Y-79940000D03*
D12*
X217700000Y-79940000D03*
D11*
X222780000Y-79940000D03*
%TD*%
%TO.C,MX92*%
X260245000Y-146850000D03*
D12*
X265325000Y-146850000D03*
D11*
X270405000Y-146850000D03*
%TD*%
%TO.C,MX5*%
X212620000Y-58600000D03*
D12*
X217700000Y-58600000D03*
D11*
X222780000Y-58600000D03*
%TD*%
D13*
%TO.C,ST14*%
X558187000Y-51615000D03*
D12*
X558187000Y-66855000D03*
D13*
X582063000Y-51615000D03*
D12*
X582063000Y-66855000D03*
%TD*%
D11*
%TO.C,MX183*%
X574570000Y-204000000D03*
D12*
X579650000Y-204000000D03*
D11*
X584730000Y-204000000D03*
%TD*%
D13*
%TO.C,ST27*%
X520087000Y-72955000D03*
D12*
X520087000Y-88195000D03*
D13*
X543963000Y-72955000D03*
D12*
X543963000Y-88195000D03*
%TD*%
D13*
%TO.C,ST4*%
X167662000Y-51615000D03*
D12*
X167662000Y-66855000D03*
D13*
X191538000Y-51615000D03*
D12*
X191538000Y-66855000D03*
%TD*%
D11*
%TO.C,MX21*%
X288820000Y-79940000D03*
D12*
X293900000Y-79940000D03*
D11*
X298980000Y-79940000D03*
%TD*%
%TO.C,MX98*%
X374545000Y-146850000D03*
D12*
X379625000Y-146850000D03*
D11*
X384705000Y-146850000D03*
%TD*%
%TO.C,MX61*%
X174520000Y-127800000D03*
D12*
X179600000Y-127800000D03*
D11*
X184680000Y-127800000D03*
%TD*%
%TO.C,MX119*%
X288820000Y-165900000D03*
D12*
X293900000Y-165900000D03*
D11*
X298980000Y-165900000D03*
%TD*%
%TO.C,MX135*%
X79270000Y-184950000D03*
D12*
X84350000Y-184950000D03*
D11*
X89430000Y-184950000D03*
%TD*%
D13*
%TO.C,ST8*%
X320062000Y-51615000D03*
D12*
X320062000Y-66855000D03*
D13*
X343938000Y-51615000D03*
D12*
X343938000Y-66855000D03*
%TD*%
D11*
%TO.C,MX176*%
X431695000Y-204000000D03*
D12*
X436775000Y-204000000D03*
D11*
X441855000Y-204000000D03*
%TD*%
%TO.C,MX182*%
X555520000Y-204000000D03*
D12*
X560600000Y-204000000D03*
D11*
X565680000Y-204000000D03*
%TD*%
%TO.C,MX15*%
X50695000Y-79940000D03*
D12*
X55775000Y-79940000D03*
D11*
X60855000Y-79940000D03*
%TD*%
%TO.C,MX10*%
X403120000Y-58600000D03*
D12*
X408200000Y-58600000D03*
D11*
X413280000Y-58600000D03*
%TD*%
%TO.C,MX70*%
X345970000Y-127800000D03*
D12*
X351050000Y-127800000D03*
D11*
X356130000Y-127800000D03*
%TD*%
%TO.C,MX131*%
X555520000Y-165900000D03*
D12*
X560600000Y-165900000D03*
D11*
X565680000Y-165900000D03*
%TD*%
D14*
%TO.C,J4*%
X574250000Y-120400000D03*
D15*
X571710000Y-120400000D03*
X569170000Y-120400000D03*
%TD*%
D16*
%TO.C,S1*%
X38150000Y-160500000D03*
X38150000Y-163500000D03*
%TD*%
D14*
%TO.C,J5*%
X568920000Y-109000000D03*
D15*
X571460000Y-109000000D03*
X574000000Y-109000000D03*
%TD*%
D17*
%TO.C,J7*%
X95135000Y-124020000D03*
X94119000Y-118940000D03*
X96151000Y-118940000D03*
%TD*%
D18*
%TO.C,J1*%
X297000000Y-116355000D03*
X302780000Y-116355000D03*
G36*
G01*
X296171600Y-112405000D02*
X296171600Y-113005000D01*
G75*
G02*
X295570000Y-113606600I-601600J0D01*
G01*
X295570000Y-113606600D01*
G75*
G02*
X294968400Y-113005000I0J601600D01*
G01*
X294968400Y-112405000D01*
G75*
G02*
X295570000Y-111803400I601600J0D01*
G01*
X295570000Y-111803400D01*
G75*
G02*
X296171600Y-112405000I0J-601600D01*
G01*
G37*
G36*
G01*
X296171600Y-116335000D02*
X296171600Y-117435000D01*
G75*
G02*
X295570000Y-118036600I-601600J0D01*
G01*
X295570000Y-118036600D01*
G75*
G02*
X294968400Y-117435000I0J601600D01*
G01*
X294968400Y-116335000D01*
G75*
G02*
X295570000Y-115733400I601600J0D01*
G01*
X295570000Y-115733400D01*
G75*
G02*
X296171600Y-116335000I0J-601600D01*
G01*
G37*
G36*
G01*
X304811600Y-112405000D02*
X304811600Y-113005000D01*
G75*
G02*
X304210000Y-113606600I-601600J0D01*
G01*
X304210000Y-113606600D01*
G75*
G02*
X303608400Y-113005000I0J601600D01*
G01*
X303608400Y-112405000D01*
G75*
G02*
X304210000Y-111803400I601600J0D01*
G01*
X304210000Y-111803400D01*
G75*
G02*
X304811600Y-112405000I0J-601600D01*
G01*
G37*
G36*
G01*
X304811600Y-116335000D02*
X304811600Y-117435000D01*
G75*
G02*
X304210000Y-118036600I-601600J0D01*
G01*
X304210000Y-118036600D01*
G75*
G02*
X303608400Y-117435000I0J601600D01*
G01*
X303608400Y-116335000D01*
G75*
G02*
X304210000Y-115733400I601600J0D01*
G01*
X304210000Y-115733400D01*
G75*
G02*
X304811600Y-116335000I0J-601600D01*
G01*
G37*
%TD*%
M02*
